<svg width="406" height="306" viewBox="0 0 406 306" fill="none" xmlns="http://www.w3.org/2000/svg">
<path d="M268.078 38.0013C262.094 38.0013 256.244 39.7794 251.269 43.1107C246.293 46.4421 242.415 51.1771 240.125 56.7169C237.835 62.2567 237.235 68.3525 238.403 74.2336C239.57 80.1146 242.452 85.5167 246.683 89.7566C250.915 93.9966 256.306 96.8841 262.175 98.0539C268.045 99.2237 274.128 98.6233 279.657 96.3287C285.186 94.034 289.911 90.1481 293.235 85.1624C296.56 80.1767 298.335 74.3151 298.335 68.3189C298.372 64.3271 297.615 60.368 296.108 56.6728C294.6 52.9777 292.373 49.6206 289.556 46.7979C286.739 43.9752 283.388 41.7434 279.701 40.2331C276.013 38.7227 272.062 37.964 268.078 38.0013Z" fill="#DA5359"/>
<path d="M301.564 98.5573H103.959C100.787 98.5573 97.7454 99.8198 95.5027 102.067C93.2599 104.314 92 107.362 92 110.541V239.84H313.363V110.541C313.401 108.97 313.122 107.408 312.545 105.948C311.967 104.487 311.102 103.158 310.001 102.04C308.9 100.922 307.585 100.037 306.136 99.439C304.686 98.8406 303.131 98.5408 301.564 98.5573Z" fill="#D7DEED"/>
<path d="M214.86 121.245H120.104C117.989 121.245 115.962 122.087 114.466 123.585C112.971 125.083 112.131 127.115 112.131 129.234V188.631C112.131 190.75 112.971 192.782 114.466 194.28C115.962 195.778 117.989 196.62 120.104 196.62H172.525L187.832 222.064L203.18 196.62H215.139C217.254 196.62 219.281 195.778 220.777 194.28C222.272 192.782 223.112 190.75 223.112 188.631V129.354C222.959 127.227 222.036 125.229 220.517 123.735C218.997 122.242 216.986 121.356 214.86 121.245Z" fill="#EF727A"/>
<path d="M182.611 58.2125V73.1516L162.439 63.0457V52.9398L182.611 42.834V58.2125Z" fill="#414A56"/>
<path d="M132.223 78.4244H112.052V38.001H162.439V52.9401V63.0459V78.4244H132.223Z" fill="#57606F"/>
<path d="M280.994 68.7182L262.458 79.2235V58.2129L280.994 68.7182Z" fill="#ECF0F1"/>
<path d="M313.244 240.039V256.017C313.244 259.195 311.984 262.243 309.741 264.49C307.498 266.737 304.456 268 301.285 268H103.959C100.787 268 97.7454 266.737 95.5027 264.49C93.2599 262.243 92 259.195 92 256.017V240.039H313.363H313.244Z" fill="#57606F"/>
<path d="M184.643 156.796L157.217 172.573V141.457L184.643 156.796Z" fill="#ECF0F1"/>
<path d="M293.511 126.118H268.078C266.767 126.003 265.546 125.4 264.657 124.427C263.767 123.455 263.274 122.184 263.274 120.865C263.274 119.546 263.767 118.275 264.657 117.302C265.546 116.33 266.767 115.727 268.078 115.612H293.511C294.89 115.633 296.206 116.191 297.181 117.168C298.156 118.145 298.713 119.464 298.734 120.845C298.642 122.206 298.063 123.489 297.104 124.457C296.145 125.425 294.869 126.015 293.511 126.118Z" fill="#AFB9D2"/>
<path d="M293.511 141.456H268.078C266.767 141.342 265.546 140.739 264.657 139.766C263.767 138.794 263.274 137.523 263.274 136.204C263.274 134.885 263.767 133.614 264.657 132.641C265.546 131.669 266.767 131.066 268.078 130.951H293.511C294.894 130.982 296.21 131.549 297.184 132.532C298.158 133.515 298.713 134.839 298.734 136.224C298.632 137.578 298.05 138.851 297.091 139.811C296.133 140.771 294.863 141.355 293.511 141.456Z" fill="#AFB9D2"/>
<path d="M293.511 156.396H247.907C246.591 156.391 245.325 155.891 244.359 154.997C243.392 154.102 242.795 152.877 242.685 151.563C242.706 150.181 243.262 148.862 244.237 147.885C245.212 146.909 246.529 146.351 247.907 146.33H293.511C294.89 146.351 296.206 146.909 297.181 147.885C298.156 148.862 298.713 150.181 298.733 151.563C298.559 152.851 297.943 154.038 296.99 154.92C296.037 155.802 294.807 156.324 293.511 156.396Z" fill="#AFB9D2"/>
<path d="M293.511 171.775H247.907C246.596 171.66 245.375 171.057 244.486 170.085C243.596 169.112 243.103 167.841 243.103 166.522C243.103 165.203 243.596 163.932 244.486 162.96C245.375 161.987 246.596 161.384 247.907 161.27H293.511C294.823 161.384 296.044 161.987 296.933 162.96C297.822 163.932 298.316 165.203 298.316 166.522C298.316 167.841 297.822 169.112 296.933 170.085C296.044 171.057 294.823 171.66 293.511 171.775Z" fill="#AFB9D2"/>
<path d="M293.511 186.713H247.907C246.596 186.599 245.375 185.996 244.486 185.023C243.596 184.051 243.103 182.78 243.103 181.461C243.103 180.142 243.596 178.871 244.486 177.898C245.375 176.926 246.596 176.323 247.907 176.208H293.511C294.823 176.323 296.044 176.926 296.933 177.898C297.822 178.871 298.316 180.142 298.316 181.461C298.316 182.78 297.822 184.051 296.933 185.023C296.044 185.996 294.823 186.599 293.511 186.713Z" fill="#AFB9D2"/>
</svg>
