<svg width="406" height="306" viewBox="0 0 406 306" fill="none" xmlns="http://www.w3.org/2000/svg">
<path d="M313.126 199.101C313.105 195.75 311.765 192.542 309.398 190.173C307.03 187.804 303.826 186.463 300.477 186.442C302.147 186.485 303.807 186.181 305.353 185.549C306.899 184.918 308.297 183.973 309.46 182.773C310.659 181.61 311.603 180.21 312.234 178.662C312.865 177.115 313.169 175.453 313.126 173.783C313.105 170.436 311.764 167.232 309.395 164.869C307.027 162.506 303.822 161.175 300.477 161.164H240.579C240.176 161.164 240.176 161.164 239.773 160.761H237.719C237.612 160.761 237.51 160.718 237.434 160.643C237.359 160.567 237.316 160.465 237.316 160.358L236.913 159.914L236.511 159.511L236.108 159.108C235.857 158.918 235.651 158.675 235.504 158.397C235.358 158.118 235.275 157.81 235.262 157.495C235.262 157.388 235.219 157.286 235.144 157.21C235.068 157.135 234.966 157.092 234.859 157.092C234.364 156.072 234.09 154.96 234.053 153.827V126.09C234.001 121.889 232.314 117.875 229.35 114.901C226.386 111.927 222.379 110.228 218.182 110.165H208.797V146.046C208.797 154.633 201.869 176.645 193.289 176.645V263.525H300.477C302.147 263.568 303.807 263.264 305.353 262.633C306.899 262.001 308.297 261.056 309.46 259.857C310.659 258.693 311.603 257.293 312.234 255.746C312.865 254.198 313.169 252.537 313.126 250.866C313.105 247.519 311.764 244.316 309.395 241.953C307.027 239.589 303.822 238.258 300.477 238.247C302.143 238.263 303.795 237.947 305.337 237.317C306.879 236.686 308.279 235.754 309.457 234.576C310.635 233.397 311.566 231.995 312.196 230.452C312.826 228.909 313.142 227.255 313.126 225.588C313.105 222.241 311.764 219.038 309.395 216.675C307.027 214.312 303.822 212.98 300.477 212.97C302.15 213.007 303.812 212.697 305.358 212.058C306.904 211.42 308.301 210.467 309.46 209.26C311.619 206.29 312.89 202.767 313.126 199.101Z" fill="#FFD8A8"/>
<path d="M142.937 268C141.544 267.979 140.214 267.416 139.228 266.43C138.243 265.444 137.681 264.113 137.66 262.718V226.797C137.776 225.471 138.384 224.236 139.364 223.337C140.345 222.437 141.627 221.938 142.957 221.938C144.287 221.938 145.569 222.437 146.55 223.337C147.53 224.236 148.138 225.471 148.254 226.797V262.718C148.223 264.116 147.651 265.448 146.66 266.432C145.668 267.417 144.334 267.979 142.937 268Z" fill="#313A52"/>
<path d="M193.692 176.242H168.032V263.122H193.692V176.242Z" fill="#313A52"/>
<path d="M185.595 64.084V135.483H131.376L104.065 155.842V135.483H89V64.084H185.595Z" fill="#D7DEED"/>
<path d="M291.092 38C287.562 37.9947 284.066 38.6867 280.804 40.0362C277.542 41.3857 274.578 43.3662 272.082 45.8643C269.586 48.3624 267.607 51.3289 266.259 54.5938C264.91 57.8587 264.219 61.3576 264.224 64.8904C264.216 70.2202 265.789 75.4326 268.742 79.8675C271.696 84.3024 275.898 87.7606 280.817 89.8039C285.735 91.8472 291.149 92.3838 296.372 91.346C301.595 90.3081 306.394 87.7426 310.159 83.9738C313.925 80.2051 316.488 75.4027 317.525 70.1749C318.562 64.9471 318.026 59.5289 315.984 54.6063C313.943 49.6837 310.488 45.4781 306.057 42.522C301.625 39.5659 296.417 37.9921 291.092 38Z" fill="#86DCFD"/>
<path d="M274.818 86.9428C270.073 83.4987 264.366 81.6368 258.504 81.6211C253.22 81.7795 248.099 83.4925 243.781 86.5464C239.463 89.6002 236.14 93.8596 234.226 98.7923C232.313 103.725 231.893 109.113 233.021 114.283C234.148 119.453 236.772 124.175 240.566 127.861C244.359 131.547 249.153 134.034 254.35 135.009C259.546 135.985 264.915 135.406 269.785 133.346C274.655 131.286 278.81 127.836 281.733 123.427C284.656 119.017 286.216 113.843 286.218 108.552C286.037 104.329 284.921 100.2 282.949 96.4626C280.978 92.7252 278.2 89.4735 274.818 86.9428Z" fill="#3598DB"/>
<path d="M301.283 186.442C303.002 186.345 304.722 186.6 306.338 187.191C307.955 187.782 309.434 188.697 310.685 189.881C311.935 191.064 312.932 192.49 313.613 194.072C314.294 195.654 314.645 197.358 314.645 199.081C314.645 200.804 314.294 202.508 313.613 204.09C312.932 205.672 311.935 207.098 310.685 208.281C309.434 209.464 307.955 210.38 306.338 210.971C304.722 211.562 303.002 211.817 301.283 211.72H262.976C259.75 211.538 256.716 210.126 254.497 207.776C252.277 205.426 251.041 202.315 251.041 199.081C251.041 195.847 252.277 192.736 254.497 190.386C256.716 188.036 259.75 186.624 262.976 186.442H301.283Z" fill="#EABD8C"/>
<path d="M301.283 237.401C302.944 237.401 304.589 237.728 306.124 238.364C307.658 239 309.053 239.933 310.227 241.108C311.402 242.284 312.333 243.679 312.969 245.215C313.604 246.751 313.932 248.397 313.932 250.06C313.932 251.722 313.604 253.368 312.969 254.904C312.333 256.44 311.402 257.835 310.227 259.011C309.053 260.186 307.658 261.119 306.124 261.755C304.589 262.391 302.944 262.719 301.283 262.719H262.976C259.631 262.697 256.431 261.356 254.07 258.985C251.709 256.615 250.378 253.407 250.368 250.06C250.351 248.396 250.666 246.746 251.294 245.206C251.921 243.665 252.849 242.265 254.022 241.087C255.196 239.909 256.591 238.976 258.129 238.343C259.666 237.71 261.314 237.39 262.976 237.401H301.283Z" fill="#EABD8C"/>
<path d="M301.283 212.123C303.002 212.026 304.722 212.28 306.338 212.872C307.955 213.463 309.434 214.378 310.685 215.561C311.935 216.744 312.932 218.171 313.613 219.753C314.294 221.335 314.645 223.039 314.645 224.762C314.645 226.484 314.294 228.189 313.613 229.771C312.932 231.353 311.935 232.779 310.685 233.962C309.434 235.145 307.955 236.06 306.338 236.652C304.722 237.243 303.002 237.498 301.283 237.401H262.976C259.75 237.218 256.716 235.807 254.497 233.457C252.277 231.107 251.041 227.995 251.041 224.762C251.041 221.528 252.277 218.417 254.497 216.066C256.716 213.716 259.75 212.305 262.976 212.123H301.283Z" fill="#C19D74"/>
<path d="M301.283 161.245C303.002 161.148 304.722 161.403 306.338 161.994C307.955 162.585 309.434 163.5 310.685 164.683C311.935 165.866 312.932 167.293 313.613 168.875C314.294 170.457 314.645 172.161 314.645 173.884C314.645 175.606 314.294 177.311 313.613 178.893C312.932 180.475 311.935 181.901 310.685 183.084C309.434 184.267 307.955 185.182 306.338 185.774C304.722 186.365 303.002 186.62 301.283 186.523H262.976C259.75 186.34 256.716 184.929 254.497 182.579C252.277 180.229 251.041 177.117 251.041 173.884C251.041 170.65 252.277 167.539 254.497 165.188C256.716 162.838 259.75 161.427 262.976 161.245H301.283Z" fill="#C19D74"/>
<path d="M292.341 71.018C292.341 71.8243 292.341 72.2274 292.744 72.2274C293.146 72.2274 293.549 72.6711 293.952 72.6711C294.837 72.6386 295.692 72.3439 296.409 71.8244L297.618 76.7428C296.933 77.3189 296.053 77.6079 295.16 77.5491C294.12 77.881 293.028 78.0179 291.938 77.9524C291.222 78.0432 290.494 77.9693 289.81 77.7366C289.127 77.5039 288.505 77.1185 287.992 76.6094C287.48 76.1003 287.09 75.481 286.852 74.7986C286.615 74.1162 286.535 73.3887 286.621 72.6711V62.4712H284.164V57.9558H286.621V51.8682H292.744V57.9558H296.772V62.4712H292.744V71.018H292.341Z" fill="white"/>
<path d="M259.753 104.077H264.265V108.552H259.753V122.017H253.671V108.552H251.213V104.077H253.671C253.634 102.428 253.769 100.779 254.073 99.1584C255.685 94.2802 260.599 93.474 265.473 95.4898L264.265 99.9647C263.862 99.9647 263.419 99.5617 263.016 99.5617C260.599 99.1585 259.35 99.5616 259.35 102.021L259.753 104.077Z" fill="white"/>
<path d="M170.892 267.999H107.328C106.003 267.884 104.769 267.275 103.871 266.294C102.972 265.312 102.473 264.029 102.473 262.698C102.473 261.367 102.972 260.084 103.871 259.102C104.769 258.121 106.003 257.512 107.328 257.396H166.018V181.402H132.987C131.662 181.286 130.429 180.678 129.53 179.696C128.631 178.715 128.133 177.432 128.133 176.1C128.133 174.769 128.631 173.486 129.53 172.505C130.429 171.523 131.662 170.915 132.987 170.799H171.134C172.531 170.819 173.865 171.381 174.857 172.366C175.849 173.351 176.42 174.682 176.451 176.08V262.96C176.214 264.298 175.539 265.519 174.533 266.432C173.527 267.344 172.246 267.895 170.892 267.999Z" fill="#232B3F"/>
<path d="M219.794 204.785C219.24 205.144 218.765 205.614 218.401 206.165C218.037 206.716 217.79 207.337 217.676 207.988C217.563 208.639 217.585 209.307 217.742 209.949C217.898 210.591 218.185 211.194 218.585 211.719C219.043 212.36 219.648 212.881 220.349 213.239C221.05 213.596 221.827 213.781 222.614 213.776C223.619 213.746 224.601 213.469 225.474 212.969C244.204 199.907 246.259 175.032 245.816 160.559H243.802C241.989 160.719 240.173 160.287 238.626 159.328C237.08 158.368 235.885 156.933 235.222 155.237C235.222 156.487 235.665 157.696 235.665 159.712C236.108 169.711 235.584 193.779 219.794 204.785Z" fill="#EABD8C"/>
<path d="M139.916 89.7648H109.382C108.648 89.8289 107.908 89.7395 107.21 89.5022C106.512 89.2649 105.871 88.8848 105.327 88.3863C104.784 87.8877 104.35 87.2816 104.053 86.6062C103.756 85.9309 103.603 85.2011 103.603 84.4633C103.603 83.7254 103.756 82.9956 104.053 82.3203C104.35 81.6449 104.784 81.0385 105.327 80.54C105.871 80.0414 106.512 79.6616 107.21 79.4243C107.908 79.187 108.648 79.0976 109.382 79.1618H139.916C140.65 79.0976 141.39 79.187 142.088 79.4243C142.786 79.6616 143.427 80.0414 143.971 80.54C144.514 81.0385 144.948 81.6449 145.245 82.3203C145.542 82.9956 145.695 83.7254 145.695 84.4633C145.695 85.2011 145.542 85.9309 145.245 86.6062C144.948 87.2816 144.514 87.8877 143.971 88.3863C143.427 88.8848 142.786 89.2649 142.088 89.5022C141.39 89.7395 140.65 89.8289 139.916 89.7648Z" fill="white"/>
<path d="M165.172 104.803H109.382C108.648 104.867 107.908 104.778 107.21 104.54C106.512 104.303 105.871 103.923 105.327 103.425C104.784 102.926 104.35 102.32 104.053 101.644C103.756 100.969 103.603 100.239 103.603 99.5013C103.603 98.7635 103.756 98.0337 104.053 97.3583C104.35 96.683 104.784 96.0766 105.327 95.5781C105.871 95.0795 106.512 94.6997 107.21 94.4624C107.908 94.2251 108.648 94.1357 109.382 94.1998H165.776C167.169 94.2207 168.5 94.7838 169.485 95.7697C170.47 96.7557 171.032 98.087 171.053 99.4812C170.871 100.925 170.177 102.256 169.098 103.233C168.019 104.209 166.626 104.766 165.172 104.803Z" fill="white"/>
<path d="M165.172 120.364H109.382C108.648 120.429 107.908 120.339 107.21 120.102C106.512 119.865 105.871 119.485 105.327 118.986C104.784 118.488 104.35 117.881 104.053 117.206C103.756 116.53 103.603 115.801 103.603 115.063C103.603 114.325 103.756 113.595 104.053 112.92C104.35 112.244 104.784 111.638 105.327 111.14C105.871 110.641 106.512 110.261 107.21 110.024C107.908 109.787 108.648 109.697 109.382 109.761H165.776C167.173 109.793 168.503 110.364 169.487 111.357C170.471 112.349 171.033 113.685 171.053 115.083C170.862 116.52 170.164 117.842 169.086 118.81C168.008 119.778 166.62 120.329 165.172 120.364Z" fill="white"/>
</svg>
