<svg width="406" height="306" viewBox="0 0 406 306" fill="none" xmlns="http://www.w3.org/2000/svg">
<path d="M268.543 206.225C267.173 206.195 265.868 205.638 264.9 204.669C263.931 203.7 263.373 202.395 263.343 201.026V181.094C263.456 179.798 264.051 178.592 265.01 177.713C265.969 176.834 267.222 176.347 268.523 176.347C269.824 176.347 271.077 176.834 272.036 177.713C272.995 178.592 273.59 179.798 273.703 181.094V201.026C273.62 202.371 273.051 203.64 272.102 204.597C271.152 205.553 269.887 206.132 268.543 206.225Z" fill="#414A56"/>
<path d="M133.867 206.225C132.497 206.195 131.192 205.638 130.223 204.669C129.255 203.7 128.697 202.395 128.667 201.026V181.094C128.78 179.798 129.375 178.592 130.334 177.713C131.293 176.834 132.546 176.347 133.847 176.347C135.148 176.347 136.401 176.834 137.36 177.713C138.319 178.592 138.914 179.798 139.027 181.094V201.026C139.007 202.392 138.458 203.697 137.496 204.666C136.533 205.636 135.233 206.195 133.867 206.225Z" fill="#414A56"/>
<path d="M303.206 196.259H98.6517C97.9335 196.196 97.2101 196.284 96.5274 196.515C95.8448 196.747 95.2179 197.119 94.6864 197.606C94.155 198.093 93.7306 198.685 93.4403 199.345C93.15 200.005 93 200.718 93 201.439C93 202.16 93.15 202.873 93.4403 203.533C93.7306 204.193 94.155 204.785 94.6864 205.272C95.2179 205.759 95.8448 206.13 96.5274 206.362C97.2101 206.594 97.9335 206.681 98.6517 206.619H303.049C303.767 206.681 304.49 206.594 305.173 206.362C305.856 206.13 306.483 205.759 307.014 205.272C307.546 204.785 307.97 204.193 308.26 203.533C308.551 202.873 308.7 202.16 308.7 201.439C308.7 200.718 308.551 200.005 308.26 199.345C307.97 198.685 307.546 198.093 307.014 197.606C306.483 197.119 305.856 196.747 305.173 196.515C304.49 196.284 303.767 196.196 303.049 196.259H303.206Z" fill="#57606F"/>
<path d="M178.89 246.049V230.923V216.151V201.025V181.094H218.714V201.025V216.151V230.923V246.049V260.781H178.89V246.049Z" fill="#3C3B3D"/>
<path d="M99.2031 51.5781V181.094H303.482V51.5781H99.2031Z" fill="#ECF0F1"/>
<path d="M303.206 166.363V181.095H98.6519V165.969H303.049L303.206 166.363Z" fill="#AFB9D2"/>
<path d="M243.845 86.6748H158.958V146.43H243.845V86.6748Z" fill="#2F4A5F"/>
<path d="M230.294 116.533C230.428 118.559 230.127 120.59 229.412 122.49C228.697 124.391 227.585 126.117 226.149 127.552C224.713 128.988 222.987 130.101 221.087 130.815C219.186 131.53 217.155 131.831 215.129 131.698H203.982V101.407H215.129C217.441 101.378 219.739 101.778 221.904 102.588C223.695 103.336 225.326 104.419 226.71 105.779C229.128 108.833 230.396 112.639 230.294 116.533ZM222.416 112.948C221.903 111.365 220.877 109.999 219.5 109.064C218.123 108.13 216.475 107.681 214.814 107.788H210.442V125.711H215.208C216.909 125.724 218.569 125.187 219.939 124.178C221.31 123.17 222.317 121.745 222.81 120.117C223.255 117.726 223.093 115.261 222.338 112.948H222.416Z" fill="white"/>
<path d="M186.453 109.364L182.869 120.118H190.038L186.453 109.364ZM172.115 131.699L183.262 101.407H189.644L200.791 131.699H193.622L191.219 124.923H181.687L179.284 131.699H172.115Z" fill="white"/>
<path d="M133.867 71.5097C132.501 71.4896 131.196 70.9408 130.226 69.9784C129.256 69.0161 128.698 67.7153 128.667 66.3495V41.6516C128.604 40.9334 128.692 40.2101 128.924 39.5275C129.156 38.8448 129.527 38.2178 130.014 37.6863C130.501 37.1548 131.093 36.7305 131.753 36.4402C132.413 36.1499 133.126 36 133.847 36C134.568 36 135.281 36.1499 135.941 36.4402C136.601 36.7305 137.193 37.1548 137.68 37.6863C138.167 38.2178 138.539 38.8448 138.77 39.5275C139.002 40.2101 139.09 40.9334 139.027 41.6516V66.8616C138.899 68.1396 138.3 69.3242 137.346 70.1838C136.391 71.0433 135.151 71.516 133.867 71.5097Z" fill="#D7DEED"/>
<path d="M178.89 71.5097C177.524 71.4896 176.219 70.9408 175.249 69.9784C174.28 69.0161 173.721 67.7153 173.69 66.3495V41.6516C173.628 40.9334 173.715 40.2101 173.947 39.5275C174.179 38.8448 174.55 38.2178 175.037 37.6863C175.524 37.1548 176.116 36.7305 176.776 36.4402C177.436 36.1499 178.149 36 178.87 36C179.591 36 180.304 36.1499 180.964 36.4402C181.624 36.7305 182.216 37.1548 182.703 37.6863C183.19 38.2178 183.562 38.8448 183.794 39.5275C184.025 40.2101 184.113 40.9334 184.05 41.6516V66.8616C183.86 68.1136 183.242 69.261 182.301 70.1085C181.36 70.956 180.155 71.4511 178.89 71.5097Z" fill="#D7DEED"/>
<path d="M223.52 71.5097C222.154 71.4896 220.849 70.9408 219.879 69.9784C218.909 69.0161 218.35 67.7153 218.32 66.3495V41.6516C218.257 40.9334 218.345 40.2101 218.576 39.5275C218.808 38.8448 219.18 38.2178 219.667 37.6863C220.154 37.1548 220.746 36.7305 221.406 36.4402C222.066 36.1499 222.779 36 223.5 36C224.221 36 224.934 36.1499 225.594 36.4402C226.254 36.7305 226.846 37.1548 227.333 37.6863C227.82 38.2178 228.191 38.8448 228.423 39.5275C228.655 40.2101 228.742 40.9334 228.68 41.6516V66.8616C228.552 68.1396 227.953 69.3242 226.999 70.1838C226.044 71.0433 224.804 71.516 223.52 71.5097Z" fill="#D7DEED"/>
<path d="M268.543 71.5097C267.177 71.4896 265.872 70.9408 264.902 69.9784C263.932 69.0161 263.374 67.7153 263.343 66.3495V41.6516C263.28 40.9334 263.368 40.2101 263.6 39.5275C263.832 38.8448 264.203 38.2178 264.69 37.6863C265.177 37.1548 265.769 36.7305 266.429 36.4402C267.089 36.1499 267.802 36 268.523 36C269.244 36 269.957 36.1499 270.617 36.4402C271.277 36.7305 271.869 37.1548 272.356 37.6863C272.843 38.2178 273.215 38.8448 273.446 39.5275C273.678 40.2101 273.766 40.9334 273.703 41.6516V66.8616C273.513 68.1136 272.895 69.261 271.954 70.1085C271.013 70.956 269.808 71.4511 268.543 71.5097Z" fill="#D7DEED"/>
<path d="M293.241 265.98H113.935C113.217 266.043 112.494 265.955 111.811 265.723C111.129 265.492 110.502 265.121 109.97 264.633C109.439 264.146 109.014 263.554 108.724 262.894C108.434 262.234 108.284 261.521 108.284 260.8C108.284 260.079 108.434 259.366 108.724 258.706C109.014 258.046 109.439 257.454 109.97 256.967C110.502 256.48 111.129 256.109 111.811 255.877C112.494 255.645 113.217 255.558 113.935 255.62H293.241C293.959 255.558 294.682 255.645 295.365 255.877C296.048 256.109 296.675 256.48 297.206 256.967C297.738 257.454 298.162 258.046 298.452 258.706C298.743 259.366 298.892 260.079 298.892 260.8C298.892 261.521 298.743 262.234 298.452 262.894C298.162 263.554 297.738 264.146 297.206 264.633C296.675 265.121 296.048 265.492 295.365 265.723C294.682 265.955 293.959 266.043 293.241 265.98Z" fill="#262626"/>
<path d="M203.588 246.049C203.618 247.419 204.175 248.724 205.144 249.693C206.113 250.661 207.418 251.219 208.787 251.249H218.714V240.889H208.945C207.552 240.868 206.207 241.399 205.203 242.365C204.2 243.332 203.619 244.656 203.588 246.049Z" fill="#323133"/>
<path d="M203.588 230.923C203.582 231.626 203.718 232.323 203.986 232.973C204.253 233.623 204.648 234.213 205.147 234.709C205.646 235.204 206.239 235.595 206.892 235.858C207.544 236.121 208.242 236.251 208.945 236.241H218.871V225.881H208.945C207.593 225.932 206.306 226.47 205.321 227.397C204.336 228.324 203.72 229.577 203.588 230.923Z" fill="#323133"/>
<path d="M203.588 216.152C203.618 217.522 204.175 218.826 205.144 219.795C206.113 220.764 207.418 221.321 208.787 221.351H218.714V210.992H208.945C207.552 210.971 206.207 211.501 205.203 212.468C204.2 213.434 203.619 214.759 203.588 216.152Z" fill="#323133"/>
<path d="M193.622 246.05C193.602 244.688 193.051 243.387 192.088 242.424C191.125 241.46 189.824 240.91 188.462 240.89H178.496V251.249H188.462C189.806 251.156 191.071 250.578 192.021 249.621C192.97 248.664 193.539 247.395 193.622 246.05Z" fill="#323133"/>
<path d="M193.622 230.923C193.602 229.557 193.053 228.252 192.091 227.283C191.128 226.313 189.828 225.754 188.462 225.724H178.496V236.241H188.462C189.159 236.264 189.854 236.142 190.501 235.88C191.148 235.619 191.734 235.226 192.22 234.725C192.706 234.224 193.081 233.627 193.323 232.972C193.565 232.318 193.666 231.62 193.622 230.923Z" fill="#323133"/>
<path d="M193.622 216.152C193.592 214.793 193.039 213.498 192.077 212.537C191.116 211.576 189.821 211.022 188.462 210.992H178.496V220.958H188.462C189.118 220.99 189.774 220.89 190.391 220.664C191.009 220.438 191.574 220.091 192.055 219.643C192.536 219.195 192.922 218.656 193.192 218.056C193.461 217.456 193.607 216.809 193.622 216.152Z" fill="#323133"/>
<path d="M143.833 71.5093H123.901C123.183 71.572 122.459 71.4846 121.777 71.2528C121.094 71.0209 120.467 70.6498 119.936 70.1627C119.404 69.6756 118.98 69.0832 118.689 68.4233C118.399 67.7634 118.249 67.0504 118.249 66.3294C118.249 65.6085 118.399 64.8955 118.689 64.2356C118.98 63.5757 119.404 62.9835 119.936 62.4964C120.467 62.0093 121.094 61.6379 121.777 61.4061C122.459 61.1743 123.183 61.0869 123.901 61.1496H143.833C145.128 61.2627 146.335 61.8575 147.214 62.8164C148.092 63.7753 148.58 65.0287 148.58 66.3294C148.58 67.6302 148.092 68.8838 147.214 69.8427C146.335 70.8016 145.128 71.3962 143.833 71.5093Z" fill="#AFB9D2"/>
<path d="M188.856 71.5093H168.924C168.206 71.572 167.483 71.4846 166.8 71.2528C166.118 71.0209 165.491 70.6498 164.959 70.1627C164.428 69.6756 164.003 69.0832 163.713 68.4233C163.423 67.7634 163.273 67.0504 163.273 66.3294C163.273 65.6085 163.423 64.8955 163.713 64.2356C164.003 63.5757 164.428 62.9835 164.959 62.4964C165.491 62.0093 166.118 61.6379 166.8 61.4061C167.483 61.1743 168.206 61.0869 168.924 61.1496H188.856C190.222 61.18 191.523 61.7388 192.485 62.7085C193.447 63.6781 193.996 64.9832 194.016 66.3492C193.932 67.6903 193.362 68.9546 192.412 69.9047C191.461 70.8549 190.197 71.4255 188.856 71.5093Z" fill="#AFB9D2"/>
<path d="M233.485 71.5093H213.554C212.836 71.572 212.112 71.4846 211.43 71.2528C210.747 71.0209 210.12 70.6498 209.589 70.1627C209.057 69.6756 208.633 69.0832 208.342 68.4233C208.052 67.7634 207.902 67.0504 207.902 66.3294C207.902 65.6085 208.052 64.8955 208.342 64.2356C208.633 63.5757 209.057 62.9835 209.589 62.4964C210.12 62.0093 210.747 61.6379 211.43 61.4061C212.112 61.1743 212.836 61.0869 213.554 61.1496H233.485C234.781 61.2627 235.988 61.8575 236.866 62.8164C237.745 63.7753 238.233 65.0287 238.233 66.3294C238.233 67.6302 237.745 68.8838 236.866 69.8427C235.988 70.8016 234.781 71.3962 233.485 71.5093Z" fill="#AFB9D2"/>
<path d="M278.509 71.5101H258.577C257.281 71.397 256.075 70.8024 255.196 69.8435C254.317 68.8846 253.83 67.631 253.83 66.3303C253.83 65.0295 254.317 63.7761 255.196 62.8172C256.075 61.8583 257.281 61.2635 258.577 61.1504H278.509C279.874 61.1808 281.175 61.7396 282.138 62.7093C283.1 63.6789 283.649 64.984 283.669 66.35C283.585 67.6911 283.014 68.9554 282.064 69.9056C281.114 70.8557 279.85 71.4264 278.509 71.5101Z" fill="#AFB9D2"/>
</svg>
