<svg width="406" height="306" viewBox="0 0 406 306" fill="none" xmlns="http://www.w3.org/2000/svg">
<path d="M315.137 38.0001H145.16C143.135 37.9945 141.13 38.3884 139.258 39.1594C137.386 39.9304 135.685 41.0632 134.254 42.4926C132.822 43.922 131.688 45.6199 130.915 47.4886C130.143 49.3572 129.748 51.3599 129.754 53.3813V238.928H102.327C102.327 257.732 114.771 268 129.754 268H258.633C266.007 267.642 272.961 264.469 278.058 259.137C283.155 253.805 286.004 246.721 286.017 239.35V67.4947H314.29C333.125 67.4947 333.971 39.31 315.137 38.0001Z" fill="#ECF0F1"/>
<path d="M252.623 268H129.246C114.22 268 101.819 258.154 101.819 238.928H226V239.773C225.978 246.985 228.726 253.932 233.678 259.182C238.63 264.433 245.411 267.589 252.623 268Z" fill="#BEC3C7"/>
<path d="M315.137 38C333.971 39.3099 333.125 67.5793 313.867 67.5793H285.594C285.586 59.9631 288.521 52.6374 293.787 47.1275C299.054 41.6176 306.246 38.3482 313.867 38H315.137Z" fill="#BEC3C7"/>
<path d="M269.764 208.969H259.056V219.66H269.764V208.969Z" fill="#D7DEED"/>
<path d="M269.764 187.629H259.056V198.32H269.764V187.629Z" fill="#D7DEED"/>
<path d="M259.056 219.658H248.348V230.349H259.056V219.658Z" fill="#D7DEED"/>
<path d="M259.056 198.277H248.348V208.968H259.056V198.277Z" fill="#D7DEED"/>
<path d="M328.85 230.349H301.847C300.455 230.228 299.158 229.59 298.214 228.562C297.27 227.533 296.746 226.188 296.746 224.793C296.746 223.398 297.27 222.053 298.214 221.024C299.158 219.995 300.455 219.358 301.847 219.236H328.85C330.242 219.358 331.538 219.995 332.483 221.024C333.427 222.053 333.951 223.398 333.951 224.793C333.951 226.188 333.427 227.533 332.483 228.562C331.538 229.59 330.242 230.228 328.85 230.349Z" fill="#D7DEED"/>
<path d="M328.85 214.631H301.847C300.455 214.51 299.158 213.872 298.214 212.843C297.27 211.814 296.746 210.47 296.746 209.074C296.746 207.679 297.27 206.334 298.214 205.306C299.158 204.277 300.455 203.639 301.847 203.518H328.85C330.242 203.639 331.538 204.277 332.483 205.306C333.427 206.334 333.951 207.679 333.951 209.074C333.951 210.47 333.427 211.814 332.483 212.843C331.538 213.872 330.242 214.51 328.85 214.631Z" fill="#D7DEED"/>
<path d="M328.85 198.319H301.847C300.455 198.198 299.158 197.56 298.214 196.531C297.27 195.503 296.746 194.158 296.746 192.763C296.746 191.367 297.27 190.023 298.214 188.994C299.158 187.965 300.455 187.327 301.847 187.206H328.85C330.242 187.327 331.538 187.965 332.483 188.994C333.427 190.023 333.951 191.367 333.951 192.763C333.951 194.158 333.427 195.503 332.483 196.531C331.538 197.56 330.242 198.198 328.85 198.319Z" fill="#D7DEED"/>
<path d="M328.85 182.474H307.433C306.662 182.542 305.885 182.448 305.151 182.199C304.418 181.95 303.744 181.552 303.173 181.03C302.602 180.507 302.146 179.872 301.834 179.164C301.522 178.456 301.361 177.691 301.361 176.918C301.361 176.144 301.522 175.379 301.834 174.672C302.146 173.964 302.602 173.328 303.173 172.806C303.744 172.283 304.418 171.885 305.151 171.636C305.885 171.387 306.662 171.294 307.433 171.361H328.85C330.242 171.482 331.538 172.12 332.483 173.149C333.427 174.177 333.951 175.522 333.951 176.918C333.951 178.313 333.427 179.658 332.483 180.686C331.538 181.715 330.242 182.353 328.85 182.474Z" fill="#D7DEED"/>
<path d="M328.85 166.247H307.433C306.662 166.314 305.885 166.22 305.151 165.972C304.418 165.723 303.744 165.325 303.173 164.802C302.602 164.28 302.146 163.644 301.834 162.936C301.522 162.228 301.361 161.463 301.361 160.69C301.361 159.917 301.522 159.152 301.834 158.444C302.146 157.736 302.602 157.101 303.173 156.578C303.744 156.056 304.418 155.657 305.151 155.409C305.885 155.16 306.662 155.066 307.433 155.133H328.85C330.242 155.255 331.538 155.893 332.483 156.922C333.427 157.95 333.951 159.295 333.951 160.69C333.951 162.085 333.427 163.43 332.483 164.459C331.538 165.488 330.242 166.125 328.85 166.247Z" fill="#D7DEED"/>
<path d="M328.85 150.443H307.433C306.662 150.51 305.885 150.417 305.151 150.168C304.418 149.919 303.744 149.521 303.173 148.999C302.602 148.476 302.146 147.84 301.834 147.133C301.522 146.425 301.361 145.66 301.361 144.886C301.361 144.113 301.522 143.348 301.834 142.64C302.146 141.932 302.602 141.297 303.173 140.775C303.744 140.252 304.418 139.854 305.151 139.605C305.885 139.356 306.662 139.262 307.433 139.33H328.85C330.313 139.352 331.711 139.942 332.746 140.975C333.782 142.009 334.372 143.404 334.394 144.865C334.297 146.305 333.682 147.662 332.664 148.686C331.646 149.711 330.291 150.335 328.85 150.443Z" fill="#D7DEED"/>
<path d="M125.013 114.948C123.979 114.865 122.972 114.578 122.05 114.103C115.853 109.916 108.541 107.678 101.057 107.678C93.5739 107.678 86.2619 109.916 80.0642 114.103C78.8687 114.837 77.4299 115.067 76.0647 114.742C74.6995 114.417 73.5194 113.564 72.7842 112.371C72.0489 111.177 71.8188 109.741 72.1443 108.378C72.4697 107.015 73.3241 105.837 74.5196 105.103C82.5401 99.8703 91.8998 97.0535 101.481 96.9893C111.052 97.1163 120.394 99.9279 128.441 105.103C129.58 105.885 130.388 107.061 130.708 108.404C131.029 109.746 130.839 111.159 130.177 112.371C129.534 113.125 128.746 113.743 127.858 114.186C126.971 114.629 126.003 114.888 125.013 114.948Z" fill="#313A52"/>
<path d="M118.199 129.484C117.151 129.407 116.129 129.12 115.194 128.639C110.934 126.017 106.059 124.56 101.057 124.414C96.025 124.358 91.0944 125.832 86.9208 128.639C85.7253 129.374 84.2868 129.603 82.9216 129.278C81.5564 128.953 80.3763 128.1 79.6411 126.907C78.9058 125.713 78.6755 124.277 79.0009 122.914C79.3264 121.551 80.1808 120.373 81.3763 119.639C87.2286 115.81 94.0605 113.741 101.057 113.681C108.185 113.75 115.151 115.814 121.162 119.639C121.772 119.986 122.304 120.453 122.725 121.014C123.146 121.574 123.447 122.215 123.61 122.897C123.772 123.578 123.793 124.286 123.671 124.976C123.548 125.665 123.285 126.323 122.897 126.907C121.708 128.322 120.032 129.241 118.199 129.484Z" fill="#313A52"/>
<path d="M110.919 144.865C110.005 144.784 109.122 144.495 108.337 144.02C106.119 142.729 103.622 141.99 101.058 141.865C98.4822 141.924 95.9689 142.668 93.7776 144.02C93.1555 144.397 92.4633 144.643 91.743 144.744C91.0227 144.846 90.2894 144.8 89.5872 144.611C88.8851 144.421 88.2289 144.091 87.6583 143.64C87.0877 143.19 86.6146 142.628 86.2677 141.99C85.9208 141.352 85.7072 140.65 85.6399 139.926C85.5727 139.203 85.6532 138.474 85.8766 137.783C86.0999 137.092 86.4613 136.453 86.9391 135.906C87.4169 135.358 88.0011 134.913 88.6562 134.597C92.4411 132.451 96.7056 131.289 101.058 131.217C105.493 131.36 109.837 132.516 113.755 134.597C114.832 135.205 115.671 136.158 116.139 137.301C116.606 138.445 116.675 139.712 116.332 140.899C115.99 142.085 115.257 143.122 114.252 143.842C113.246 144.562 112.028 144.922 110.792 144.865H110.919Z" fill="#313A52"/>
<path d="M101.058 166.247C99.1874 166.255 97.3567 165.708 95.7981 164.676C94.2395 163.644 93.023 162.173 92.3034 160.449C91.5838 158.726 91.3934 156.827 91.7562 154.995C92.1191 153.164 93.0188 151.481 94.3414 150.16C95.6639 148.84 97.3495 147.942 99.1843 147.579C101.019 147.217 102.92 147.407 104.647 148.126C106.373 148.844 107.847 150.059 108.881 151.615C109.915 153.171 110.462 154.998 110.454 156.866C110.432 159.347 109.434 161.72 107.677 163.474C105.92 165.229 103.543 166.224 101.058 166.247Z" fill="#313A52"/>
<path d="M216.223 70.072H152.017C151.245 70.1392 150.468 70.0458 149.734 69.7971C149.001 69.5484 148.327 69.15 147.756 68.6274C147.185 68.1049 146.729 67.4696 146.417 66.7617C146.105 66.0538 145.944 65.2887 145.944 64.5153C145.944 63.7419 146.105 62.9771 146.417 62.2692C146.729 61.5613 147.185 60.926 147.756 60.4034C148.327 59.8809 149.001 59.4825 149.734 59.2338C150.468 58.9851 151.245 58.8914 152.017 58.9586H216.223C217.691 58.9801 219.093 59.5692 220.135 60.6015C221.177 61.6338 221.778 63.029 221.81 64.4942C221.834 65.233 221.705 65.9689 221.433 66.6562C221.16 67.3436 220.75 67.968 220.226 68.4907C219.703 69.0134 219.077 69.4234 218.389 69.6955C217.701 69.9675 216.963 70.0955 216.223 70.072Z" fill="#57606F"/>
<path d="M237.64 86.2986H152.017C151.245 86.3658 150.468 86.2721 149.734 86.0234C149.001 85.7747 148.327 85.3765 147.756 84.854C147.185 84.3315 146.729 83.6959 146.417 82.988C146.105 82.2801 145.944 81.5152 145.944 80.7419C145.944 79.9685 146.105 79.2036 146.417 78.4957C146.729 77.7878 147.185 77.1523 147.756 76.6297C148.327 76.1072 149.001 75.7091 149.734 75.4604C150.468 75.2117 151.245 75.1179 152.017 75.1852H237.64C239.032 75.3065 240.328 75.9443 241.273 76.973C242.217 78.0017 242.741 79.3465 242.741 80.7419C242.741 82.1372 242.217 83.4818 241.273 84.5105C240.328 85.5391 239.032 86.1772 237.64 86.2986Z" fill="#57606F"/>
<path d="M264.685 102.144H152.101C151.33 102.212 150.552 102.118 149.819 101.869C149.085 101.62 148.412 101.222 147.841 100.7C147.27 100.177 146.814 99.5416 146.502 98.8337C146.19 98.1258 146.029 97.3609 146.029 96.5876C146.029 95.8142 146.19 95.0493 146.502 94.3414C146.814 93.6335 147.27 92.998 147.841 92.4754C148.412 91.9529 149.085 91.5548 149.819 91.3061C150.552 91.0574 151.33 90.9636 152.101 91.0309H264.685C265.457 90.9636 266.234 91.0574 266.968 91.3061C267.701 91.5548 268.375 91.9529 268.946 92.4754C269.517 92.998 269.973 93.6335 270.285 94.3414C270.597 95.0493 270.758 95.8142 270.758 96.5876C270.758 97.3609 270.597 98.1258 270.285 98.8337C269.973 99.5416 269.517 100.177 268.946 100.7C268.375 101.222 267.701 101.62 266.968 101.869C266.234 102.118 265.457 102.212 264.685 102.144Z" fill="#57606F"/>
<path d="M264.685 118.372H152.101C151.33 118.439 150.552 118.345 149.819 118.097C149.085 117.848 148.412 117.45 147.841 116.927C147.27 116.404 146.814 115.769 146.502 115.061C146.19 114.353 146.029 113.589 146.029 112.815C146.029 112.042 146.19 111.277 146.502 110.569C146.814 109.861 147.27 109.226 147.841 108.703C148.412 108.18 149.085 107.782 149.819 107.533C150.552 107.285 151.33 107.191 152.101 107.258H264.685C266.157 107.291 267.559 107.889 268.6 108.928C269.641 109.967 270.24 111.367 270.272 112.836C270.164 114.275 269.539 115.627 268.513 116.644C267.487 117.661 266.128 118.274 264.685 118.372Z" fill="#57606F"/>
<path d="M216.223 134.344H152.017C151.245 134.412 150.468 134.318 149.734 134.069C149.001 133.821 148.327 133.422 147.756 132.9C147.185 132.377 146.729 131.742 146.417 131.034C146.105 130.326 145.944 129.561 145.944 128.788C145.944 128.014 146.105 127.25 146.417 126.542C146.729 125.834 147.185 125.198 147.756 124.676C148.327 124.153 149.001 123.755 149.734 123.506C150.468 123.258 151.245 123.164 152.017 123.231H216.223C217.695 123.263 219.097 123.861 220.138 124.901C221.179 125.94 221.778 127.34 221.81 128.809C221.834 129.546 221.706 130.28 221.433 130.965C221.16 131.65 220.748 132.272 220.224 132.791C219.7 133.311 219.074 133.717 218.386 133.984C217.698 134.251 216.961 134.374 216.223 134.344Z" fill="#57606F"/>
<path d="M264.685 150.443H152.101C151.33 150.51 150.552 150.417 149.819 150.168C149.085 149.919 148.412 149.521 147.841 148.999C147.27 148.476 146.814 147.84 146.502 147.133C146.19 146.425 146.029 145.66 146.029 144.886C146.029 144.113 146.19 143.348 146.502 142.64C146.814 141.932 147.27 141.297 147.841 140.775C148.412 140.252 149.085 139.854 149.819 139.605C150.552 139.356 151.33 139.262 152.101 139.33H264.685C266.153 139.351 267.555 139.94 268.597 140.972C269.639 142.005 270.24 143.4 270.272 144.865C270.173 146.312 269.553 147.674 268.526 148.7C267.499 149.725 266.135 150.344 264.685 150.443Z" fill="#57606F"/>
</svg>
