<svg width="429" height="318" viewBox="0 0 429 318" fill="none" xmlns="http://www.w3.org/2000/svg">
<g clip-path="url(#clip0_183_307)">
<path d="M294.292 145.1C290.264 145.09 286.85 147.825 285.73 151.692C284.621 155.515 282.542 159.015 279.645 161.891C275.132 166.371 269.133 168.741 262.79 168.805V168.924C257.717 168.913 252.817 168.181 248.142 166.921C262.951 153.059 272.224 133.35 272.031 111.465C271.826 88.277 252.978 69.9677 229.779 70C188.54 70.0647 154.98 103.538 154.776 144.745C154.668 168.095 173.117 187.104 196.467 187.244C208.476 187.319 219.795 184.476 229.887 179.511C239.86 184.411 251.029 187.244 262.865 187.244V187.125H262.876C274.066 187.125 284.599 182.785 292.548 174.891C297.803 169.678 301.519 163.313 303.447 156.366C305.019 150.712 300.679 145.122 294.799 145.1H294.292ZM253.7 112.122C253.7 131.142 244.276 147.954 229.887 158.272C215.498 147.954 206.074 131.142 206.074 112.122C206.074 99.8118 215.466 89.6556 227.464 88.4278C228.271 88.3955 229.079 88.3093 229.898 88.3093C243.016 88.3093 253.7 98.9933 253.7 112.122ZM196.909 168.924C183.78 168.924 173.096 158.24 173.096 145.111C173.096 130.313 178.836 116.861 188.142 106.748C187.916 108.514 187.754 110.302 187.754 112.133C187.754 133.749 196.984 153.199 211.642 166.921C206.936 168.181 202.014 168.924 196.909 168.924Z" fill="black"/>
</g>
<g clip-path="url(#clip1_183_307)">
<path d="M73.2146 244.734C73.0279 244.361 72.6213 243.987 71.9946 243.614C71.3613 243.241 71.0446 242.961 71.0446 242.774C71.0446 242.587 70.9413 242.297 70.7346 241.904C70.5213 241.504 70.3213 241.211 70.1346 241.024C69.9013 240.744 69.9713 240.054 70.3446 238.954C70.7179 237.861 71.2779 236.521 72.0246 234.934C72.7713 233.347 73.5879 231.737 74.4746 230.104C74.8479 229.731 75.2213 229.241 75.5946 228.634C75.9679 228.027 76.2479 227.631 76.4346 227.444C76.4346 227.257 76.5046 227.084 76.6446 226.924C76.7846 226.757 76.9479 226.674 77.1346 226.674L77.6946 225.554C77.7879 225.367 78.0813 224.994 78.5746 224.434C79.0613 223.874 79.6546 223.257 80.3546 222.584C81.0546 221.904 81.7679 221.261 82.4946 220.654C83.2146 220.047 83.8079 219.604 84.2746 219.324C85.2546 218.671 86.2713 218.367 87.3246 218.414C88.3713 218.461 89.2679 218.787 90.0146 219.394C90.1546 219.534 90.4713 219.814 90.9646 220.234C91.4513 220.654 92.0113 221.121 92.6446 221.634C93.2713 222.147 93.8179 222.614 94.2846 223.034L96.8746 225.344L95.6846 228.844C95.0779 230.711 94.9279 232.344 95.2346 233.744C95.5346 235.144 95.9646 236.357 96.5246 237.384C96.7579 237.897 97.0746 238.294 97.4746 238.574C97.8679 238.854 98.3913 239.041 99.0446 239.134C99.4179 239.181 99.7679 239.321 100.095 239.554C100.421 239.787 100.585 240.161 100.585 240.674C100.585 241.794 100.388 242.601 99.9946 243.094C99.5946 243.581 99.1613 243.871 98.6946 243.964C97.1546 244.151 95.6846 243.987 94.2846 243.474C92.8846 242.961 91.6246 241.631 90.5046 239.484C90.3179 239.204 90.0746 238.681 89.7746 237.914C89.4679 237.141 89.2913 236.637 89.2446 236.404C89.0579 236.637 88.8146 236.931 88.5146 237.284C88.2079 237.631 87.9146 237.944 87.6346 238.224C84.3213 241.584 81.4879 243.767 79.1346 244.774C76.7746 245.774 74.8013 245.761 73.2146 244.734ZM77.0646 238.924C77.3913 238.971 77.9046 238.797 78.6046 238.404C79.3046 238.004 80.2379 237.337 81.4046 236.404C82.9913 235.051 84.2979 233.931 85.3246 233.044C86.3513 232.157 87.3546 231.014 88.3346 229.614L89.8746 227.094C89.4079 226.021 88.9879 225.321 88.6146 224.994C88.2413 224.667 87.8679 224.504 87.4946 224.504C86.8879 224.504 86.1646 224.891 85.3246 225.664C84.4846 226.431 83.5413 227.551 82.4946 229.024C81.4413 230.491 80.2613 232.321 78.9546 234.514C78.3479 235.541 77.8813 236.531 77.5546 237.484C77.2279 238.444 77.0646 238.924 77.0646 238.924ZM101.285 244.314C100.865 243.987 100.411 243.567 99.9246 243.054C99.4313 242.541 99.2546 241.817 99.3946 240.884C99.5346 239.577 99.7213 238.424 99.9546 237.424C100.188 236.417 100.468 235.261 100.795 233.954C100.888 233.394 101.135 232.437 101.535 231.084C101.928 229.731 102.405 228.261 102.965 226.674C103.525 225.087 104.108 223.584 104.715 222.164C105.321 220.737 105.858 219.674 106.325 218.974C106.838 218.507 107.598 218.274 108.605 218.274C109.605 218.274 110.291 218.461 110.665 218.834C111.178 219.254 111.341 219.987 111.155 221.034C110.968 222.087 110.315 223.711 109.195 225.904C108.961 226.464 108.671 227.061 108.325 227.694C107.971 228.321 107.725 228.834 107.585 229.234C107.445 229.627 107.491 229.801 107.725 229.754C108.005 229.241 108.518 228.647 109.265 227.974C110.011 227.294 110.805 226.627 111.645 225.974C112.485 225.321 113.278 224.737 114.025 224.224C114.771 223.711 115.285 223.384 115.565 223.244C115.938 223.011 116.371 222.811 116.865 222.644C117.351 222.484 117.688 222.357 117.875 222.264C118.948 221.751 120.128 221.551 121.415 221.664C122.695 221.784 123.475 222.194 123.755 222.894C123.801 223.267 123.955 223.547 124.215 223.734C124.468 223.921 124.595 224.014 124.595 224.014C124.781 224.014 124.888 224.084 124.915 224.224C124.935 224.364 124.945 224.434 124.945 224.434C124.945 224.761 124.631 225.227 124.005 225.834C123.371 226.441 122.681 226.767 121.935 226.814C121.328 226.861 120.791 226.977 120.325 227.164C119.858 227.351 119.298 227.584 118.645 227.864C116.871 228.891 115.275 229.801 113.855 230.594C112.428 231.387 110.968 232.601 109.475 234.234C109.148 234.607 108.798 234.957 108.425 235.284C108.051 235.611 107.678 236.077 107.305 236.684C107.071 236.917 106.838 237.431 106.605 238.224C106.371 239.017 106.175 239.777 106.015 240.504C105.848 241.224 105.765 241.654 105.765 241.794C105.765 241.794 105.695 242.017 105.555 242.464C105.415 242.904 105.181 243.334 104.855 243.754C104.295 244.501 103.748 244.967 103.215 245.154C102.675 245.341 102.031 245.061 101.285 244.314ZM127.325 246.274C126.811 246.181 126.251 245.867 125.645 245.334C125.038 244.794 124.491 244.184 124.005 243.504C123.511 242.831 123.195 242.261 123.055 241.794C123.055 241.701 122.998 241.584 122.885 241.444C122.765 241.304 122.705 241.234 122.705 241.234C122.518 241.094 122.415 240.477 122.395 239.384C122.368 238.284 122.425 237.057 122.565 235.704C122.705 234.351 122.868 233.277 123.055 232.484C123.288 231.737 123.638 230.724 124.105 229.444C124.571 228.157 124.968 227.001 125.295 225.974L127.185 221.914L124.385 221.144C124.058 221.051 123.791 220.864 123.585 220.584C123.371 220.304 123.265 220.071 123.265 219.884C123.265 219.511 123.475 218.974 123.895 218.274C124.315 217.574 124.618 217.224 124.805 217.224C125.038 217.271 125.471 217.294 126.105 217.294C126.731 217.294 127.348 217.271 127.955 217.224C128.561 217.177 128.935 217.131 129.075 217.084C129.261 216.991 129.448 216.864 129.635 216.704C129.821 216.537 129.961 216.291 130.055 215.964C130.288 215.451 130.498 215.054 130.685 214.774C130.871 214.494 131.128 214.074 131.455 213.514C131.781 212.907 132.051 212.394 132.265 211.974C132.471 211.554 132.808 210.971 133.275 210.224C133.508 209.897 133.765 209.501 134.045 209.034C134.325 208.567 134.675 208.171 135.095 207.844C135.515 207.471 136.205 207.201 137.165 207.034C138.118 206.874 138.945 207.097 139.645 207.704C140.018 208.171 140.228 208.614 140.275 209.034C140.321 209.454 140.135 209.991 139.715 210.644C139.341 211.437 138.911 212.147 138.425 212.774C137.931 213.407 137.475 214.121 137.055 214.914C136.308 215.941 136.168 216.524 136.635 216.664C137.101 216.804 138.408 216.711 140.555 216.384C141.908 216.151 142.888 216.291 143.495 216.804C144.101 217.317 144.451 217.971 144.545 218.764C144.685 219.884 144.568 220.561 144.195 220.794C143.821 221.027 142.748 221.144 140.975 221.144C139.855 221.331 138.898 221.434 138.105 221.454C137.311 221.481 136.728 221.494 136.355 221.494C135.748 221.541 135.351 221.564 135.165 221.564C134.978 221.564 134.698 221.611 134.325 221.704C133.951 221.797 133.685 221.951 133.525 222.164C133.358 222.371 133.181 222.661 132.995 223.034C132.808 223.221 132.528 223.711 132.155 224.504C131.781 225.297 131.315 226.161 130.755 227.094C130.101 229.054 129.555 230.934 129.115 232.734C128.668 234.527 128.281 236.311 127.955 238.084C127.815 238.971 127.851 239.614 128.065 240.014C128.271 240.407 128.865 240.651 129.845 240.744C130.358 240.791 131.105 240.781 132.085 240.714C133.065 240.641 133.881 240.511 134.535 240.324C135.048 240.091 135.585 239.847 136.145 239.594C136.705 239.334 137.218 239.064 137.685 238.784C138.105 238.551 138.525 238.307 138.945 238.054C139.365 237.794 139.575 237.664 139.575 237.664C139.808 237.291 140.148 237.351 140.595 237.844C141.035 238.331 141.348 238.854 141.535 239.414C141.535 239.974 141.418 240.641 141.185 241.414C140.951 242.181 140.088 242.984 138.595 243.824C136.495 245.131 134.395 245.924 132.295 246.204C130.195 246.484 128.538 246.507 127.325 246.274ZM143.285 245.014C142.911 244.641 142.645 244.081 142.485 243.334C142.318 242.587 142.258 241.854 142.305 241.134C142.351 240.407 142.468 239.857 142.655 239.484C142.655 239.111 142.715 238.821 142.835 238.614C142.948 238.401 142.981 238.201 142.935 238.014C142.888 237.827 142.935 237.501 143.075 237.034C143.215 236.567 143.355 236.124 143.495 235.704C143.821 234.957 144.195 233.991 144.615 232.804C145.035 231.611 145.455 230.397 145.875 229.164C146.295 227.924 146.645 226.851 146.925 225.944C147.205 225.031 147.368 224.481 147.415 224.294C147.415 223.734 147.788 223.431 148.535 223.384C149.095 223.197 149.771 223.431 150.565 224.084C151.358 224.737 151.988 225.437 152.455 226.184C152.828 226.557 152.968 227.047 152.875 227.654C152.781 228.261 152.478 229.124 151.965 230.244C151.778 230.617 151.558 231.234 151.305 232.094C151.045 232.961 150.868 233.674 150.775 234.234C150.588 234.607 150.368 235.131 150.115 235.804C149.855 236.484 149.631 237.127 149.445 237.734C149.351 237.967 149.258 238.401 149.165 239.034C149.071 239.661 148.955 240.301 148.815 240.954C148.675 241.607 148.488 242.121 148.255 242.494C147.835 244.407 147.101 245.527 146.055 245.854C145.001 246.181 144.078 245.901 143.285 245.014ZM150.845 216.944C150.331 216.571 149.948 216.117 149.695 215.584C149.435 215.044 149.295 214.564 149.275 214.144C149.248 213.724 149.281 213.467 149.375 213.374C149.841 212.861 150.251 212.184 150.605 211.344C150.951 210.504 151.335 209.734 151.755 209.034C151.848 208.894 151.978 208.697 152.145 208.444C152.305 208.184 152.478 208.031 152.665 207.984C153.225 207.611 154.008 207.634 155.015 208.054C156.015 208.474 156.748 209.057 157.215 209.804C157.635 210.691 157.765 211.601 157.605 212.534C157.438 213.467 156.935 214.447 156.095 215.474C155.395 216.407 154.508 217.001 153.435 217.254C152.361 217.514 151.498 217.411 150.845 216.944ZM157.705 246.624C156.118 245.971 154.965 245.284 154.245 244.564C153.518 243.837 153.225 243.194 153.365 242.634C153.458 242.354 153.621 242.097 153.855 241.864C154.088 241.631 154.615 241.527 155.435 241.554C156.248 241.574 157.518 241.794 159.245 242.214C159.758 242.214 160.271 242.191 160.785 242.144C161.298 242.097 161.778 242.027 162.225 241.934C162.665 241.841 163.025 241.724 163.305 241.584C163.538 241.491 163.608 241.364 163.515 241.204C163.421 241.037 163.258 240.861 163.025 240.674C162.838 240.441 162.628 240.291 162.395 240.224C162.161 240.151 161.951 240.114 161.765 240.114C161.671 239.881 161.475 239.647 161.175 239.414C160.868 239.181 160.505 238.924 160.085 238.644C159.058 237.804 158.125 237.057 157.285 236.404C156.445 235.751 156.118 235.261 156.305 234.934C156.305 234.747 156.305 234.644 156.305 234.624C156.305 234.597 156.305 234.584 156.305 234.584C155.978 234.584 155.675 234.131 155.395 233.224C155.115 232.311 154.975 231.481 154.975 230.734C154.975 229.801 155.175 228.867 155.575 227.934C155.968 227.001 156.481 226.114 157.115 225.274C157.741 224.434 158.381 223.687 159.035 223.034C159.921 222.194 160.868 221.367 161.875 220.554C162.875 219.734 163.971 218.997 165.165 218.344C166.351 217.691 167.668 217.177 169.115 216.804C169.768 216.664 170.515 216.594 171.355 216.594C172.195 216.594 172.801 216.711 173.175 216.944C173.548 216.711 174.015 216.767 174.575 217.114C175.135 217.467 175.695 217.947 176.255 218.554C176.815 219.161 177.235 219.767 177.515 220.374C177.515 220.934 177.505 221.624 177.485 222.444C177.458 223.257 177.398 223.967 177.305 224.574C177.211 225.181 177.001 225.484 176.675 225.484C176.675 225.484 176.618 225.497 176.505 225.524C176.385 225.544 176.325 225.671 176.325 225.904C176.325 226.371 175.975 226.907 175.275 227.514C174.388 228.121 173.548 228.611 172.755 228.984C171.961 229.357 171.355 229.381 170.935 229.054C170.655 228.867 170.398 228.681 170.165 228.494C169.931 228.307 169.721 228.074 169.535 227.794C169.535 227.794 169.478 227.691 169.365 227.484C169.245 227.271 169.185 227.071 169.185 226.884C169.185 226.697 169.255 226.524 169.395 226.364C169.535 226.197 169.605 226.114 169.605 226.114C170.258 225.507 170.761 224.947 171.115 224.434C171.461 223.921 171.705 223.464 171.845 223.064C171.985 222.671 172.055 222.357 172.055 222.124C172.055 221.844 171.998 221.667 171.885 221.594C171.765 221.527 171.518 221.494 171.145 221.494C170.911 221.494 170.411 221.681 169.645 222.054C168.871 222.427 168.065 222.881 167.225 223.414C166.385 223.954 165.731 224.434 165.265 224.854C165.078 225.181 164.951 225.391 164.885 225.484C164.811 225.577 164.681 225.624 164.495 225.624C164.495 225.437 164.378 225.461 164.145 225.694C163.911 225.927 163.631 226.254 163.305 226.674C162.978 227.094 162.651 227.537 162.325 228.004C161.998 228.471 161.741 228.844 161.555 229.124C161.508 229.544 161.405 229.931 161.245 230.284C161.078 230.631 161.018 230.991 161.065 231.364C161.111 231.831 161.345 232.274 161.765 232.694C162.185 233.114 162.791 233.651 163.585 234.304C165.218 235.517 166.445 236.474 167.265 237.174C168.078 237.874 168.648 238.434 168.975 238.854C169.301 239.274 169.511 239.694 169.605 240.114C170.398 241.561 170.491 242.811 169.885 243.864C169.278 244.911 168.345 245.714 167.085 246.274C166.618 246.507 165.801 246.731 164.635 246.944C163.468 247.151 162.245 247.244 160.965 247.224C159.678 247.197 158.591 246.997 157.705 246.624ZM198.305 246.484C196.951 246.717 195.611 246.601 194.285 246.134C192.951 245.667 191.855 244.911 190.995 243.864C190.128 242.811 189.695 241.537 189.695 240.044C189.555 238.644 189.685 236.977 190.085 235.044C190.478 233.104 191.085 231.154 191.905 229.194C192.718 227.234 193.661 225.577 194.735 224.224C195.668 223.104 196.601 222.077 197.535 221.144C198.468 220.211 199.308 219.581 200.055 219.254C200.708 218.974 201.515 218.754 202.475 218.594C203.428 218.427 204.091 218.344 204.465 218.344C205.211 218.531 206.041 218.834 206.955 219.254C207.861 219.674 208.315 220.164 208.315 220.724C208.315 220.724 208.375 220.781 208.495 220.894C208.608 221.014 208.665 221.074 208.665 221.074C208.945 221.074 209.261 221.414 209.615 222.094C209.961 222.767 210.228 223.534 210.415 224.394C210.601 225.261 210.555 225.951 210.275 226.464C210.088 227.351 209.728 228.214 209.195 229.054C208.655 229.894 208.198 230.314 207.825 230.314C207.638 230.314 207.465 230.324 207.305 230.344C207.138 230.371 207.055 230.501 207.055 230.734C207.055 230.967 206.811 231.084 206.325 231.084C205.831 231.084 205.328 230.991 204.815 230.804C204.301 230.617 203.975 230.337 203.835 229.964C203.835 229.731 203.881 229.427 203.975 229.054C204.068 228.681 204.208 228.051 204.395 227.164C204.675 225.857 204.698 224.981 204.465 224.534C204.231 224.094 203.648 224.061 202.715 224.434C201.548 225.087 200.591 225.844 199.845 226.704C199.098 227.571 198.431 228.774 197.845 230.314C197.265 231.854 196.625 234.001 195.925 236.754C195.645 237.827 195.611 238.667 195.825 239.274C196.031 239.881 196.205 240.207 196.345 240.254C196.998 240.441 197.711 240.477 198.485 240.364C199.251 240.244 199.891 240.044 200.405 239.764C201.151 239.391 201.818 238.984 202.405 238.544C202.985 238.097 203.625 237.617 204.325 237.104C204.558 236.964 204.768 236.697 204.955 236.304C205.141 235.904 205.421 235.611 205.795 235.424C206.168 234.864 206.648 234.574 207.235 234.554C207.815 234.527 208.385 234.514 208.945 234.514C209.318 234.607 209.715 234.841 210.135 235.214C210.555 235.587 210.871 235.951 211.085 236.304C211.291 236.651 211.255 236.894 210.975 237.034C210.788 237.034 210.685 237.091 210.665 237.204C210.638 237.324 210.625 237.384 210.625 237.384C210.718 237.571 210.521 237.991 210.035 238.644C209.541 239.297 208.921 239.997 208.175 240.744C207.428 241.491 206.718 242.134 206.045 242.674C205.365 243.207 204.885 243.474 204.605 243.474C204.138 243.474 203.905 243.614 203.905 243.894C203.905 243.987 203.568 244.221 202.895 244.594C202.215 244.967 201.445 245.341 200.585 245.714C199.718 246.087 198.958 246.344 198.305 246.484ZM213.845 244.314C213.425 243.987 212.971 243.567 212.485 243.054C211.991 242.541 211.815 241.817 211.955 240.884C212.095 239.577 212.281 238.424 212.515 237.424C212.748 236.417 213.028 235.261 213.355 233.954C213.448 233.394 213.695 232.437 214.095 231.084C214.488 229.731 214.965 228.261 215.525 226.674C216.085 225.087 216.668 223.584 217.275 222.164C217.881 220.737 218.418 219.674 218.885 218.974C219.398 218.507 220.158 218.274 221.165 218.274C222.165 218.274 222.851 218.461 223.225 218.834C223.738 219.254 223.901 219.987 223.715 221.034C223.528 222.087 222.875 223.711 221.755 225.904C221.521 226.464 221.231 227.061 220.885 227.694C220.531 228.321 220.285 228.834 220.145 229.234C220.005 229.627 220.051 229.801 220.285 229.754C220.565 229.241 221.078 228.647 221.825 227.974C222.571 227.294 223.365 226.627 224.205 225.974C225.045 225.321 225.838 224.737 226.585 224.224C227.331 223.711 227.845 223.384 228.125 223.244C228.498 223.011 228.931 222.811 229.425 222.644C229.911 222.484 230.248 222.357 230.435 222.264C231.508 221.751 232.688 221.551 233.975 221.664C235.255 221.784 236.035 222.194 236.315 222.894C236.361 223.267 236.515 223.547 236.775 223.734C237.028 223.921 237.155 224.014 237.155 224.014C237.341 224.014 237.448 224.084 237.475 224.224C237.495 224.364 237.505 224.434 237.505 224.434C237.505 224.761 237.191 225.227 236.565 225.834C235.931 226.441 235.241 226.767 234.495 226.814C233.888 226.861 233.351 226.977 232.885 227.164C232.418 227.351 231.858 227.584 231.205 227.864C229.431 228.891 227.835 229.801 226.415 230.594C224.988 231.387 223.528 232.601 222.035 234.234C221.708 234.607 221.358 234.957 220.985 235.284C220.611 235.611 220.238 236.077 219.865 236.684C219.631 236.917 219.398 237.431 219.165 238.224C218.931 239.017 218.735 239.777 218.575 240.504C218.408 241.224 218.325 241.654 218.325 241.794C218.325 241.794 218.255 242.017 218.115 242.464C217.975 242.904 217.741 243.334 217.415 243.754C216.855 244.501 216.308 244.967 215.775 245.154C215.235 245.341 214.591 245.061 213.845 244.314ZM248.425 244.804C247.025 245.597 245.541 246.054 243.975 246.174C242.415 246.287 240.958 246.074 239.605 245.534C238.251 245.001 237.155 244.197 236.315 243.124C235.848 242.517 235.405 241.551 234.985 240.224C234.565 238.891 234.495 237.081 234.775 234.794C235.055 232.647 235.718 230.477 236.765 228.284C237.818 226.091 239.115 224.154 240.655 222.474C242.195 220.794 243.875 219.651 245.695 219.044C246.348 218.811 247.015 218.637 247.695 218.524C248.368 218.404 249.265 218.391 250.385 218.484C251.458 218.624 252.415 218.891 253.255 219.284C254.095 219.684 254.701 220.117 255.075 220.584C255.821 221.331 256.311 222.054 256.545 222.754C256.778 223.454 256.871 224.131 256.825 224.784C256.591 226.277 255.925 227.887 254.825 229.614C253.731 231.341 252.205 232.624 250.245 233.464C249.451 233.791 248.518 234.001 247.445 234.094C246.371 234.187 244.901 234.047 243.035 233.674C241.915 233.441 241.178 233.557 240.825 234.024C240.478 234.491 240.328 235.401 240.375 236.754C240.468 237.594 240.668 238.327 240.975 238.954C241.275 239.587 241.845 240.021 242.685 240.254C243.758 240.441 244.528 240.454 244.995 240.294C245.461 240.127 246.045 239.881 246.745 239.554C247.118 239.321 247.478 239.064 247.825 238.784C248.178 238.504 248.528 238.224 248.875 237.944C249.228 237.664 249.521 237.454 249.755 237.314C249.988 237.127 250.221 237.011 250.455 236.964C250.688 236.917 250.921 236.894 251.155 236.894C251.668 236.941 252.158 237.221 252.625 237.734C253.091 238.247 253.395 238.737 253.535 239.204C253.535 239.577 253.301 240.104 252.835 240.784C252.368 241.457 251.748 242.157 250.975 242.884C250.208 243.604 249.358 244.244 248.425 244.804ZM247.515 229.194C247.841 229.054 248.318 228.727 248.945 228.214C249.578 227.701 250.151 227.151 250.665 226.564C251.178 225.984 251.435 225.531 251.435 225.204C251.435 224.691 251.095 224.247 250.415 223.874C249.741 223.501 248.868 223.431 247.795 223.664C247.421 223.757 246.978 224.014 246.465 224.434C245.951 224.854 245.438 225.334 244.925 225.874C244.411 226.407 243.968 226.921 243.595 227.414C243.221 227.901 242.965 228.284 242.825 228.564C243.011 228.797 243.385 228.984 243.945 229.124C244.505 229.264 245.121 229.334 245.795 229.334C246.475 229.334 247.048 229.287 247.515 229.194ZM257.175 244.734C256.988 244.361 256.578 243.987 255.945 243.614C255.318 243.241 255.005 242.961 255.005 242.774C255.005 242.587 254.898 242.297 254.685 241.904C254.478 241.504 254.281 241.211 254.095 241.024C253.861 240.744 253.931 240.054 254.305 238.954C254.678 237.861 255.238 236.521 255.985 234.934C256.731 233.347 257.548 231.737 258.435 230.104C258.808 229.731 259.181 229.241 259.555 228.634C259.928 228.027 260.208 227.631 260.395 227.444C260.395 227.257 260.465 227.084 260.605 226.924C260.745 226.757 260.908 226.674 261.095 226.674L261.655 225.554C261.748 225.367 262.038 224.994 262.525 224.434C263.018 223.874 263.615 223.257 264.315 222.584C265.015 221.904 265.725 221.261 266.445 220.654C267.171 220.047 267.768 219.604 268.235 219.324C269.215 218.671 270.228 218.367 271.275 218.414C272.328 218.461 273.228 218.787 273.975 219.394C274.115 219.534 274.428 219.814 274.915 220.234C275.408 220.654 275.968 221.121 276.595 221.634C277.228 222.147 277.778 222.614 278.245 223.034L280.835 225.344L279.645 228.844C279.038 230.711 278.885 232.344 279.185 233.744C279.491 235.144 279.925 236.357 280.485 237.384C280.718 237.897 281.031 238.294 281.425 238.574C281.825 238.854 282.351 239.041 283.005 239.134C283.378 239.181 283.728 239.321 284.055 239.554C284.381 239.787 284.545 240.161 284.545 240.674C284.545 241.794 284.345 242.601 283.945 243.094C283.551 243.581 283.121 243.871 282.655 243.964C281.115 244.151 279.645 243.987 278.245 243.474C276.845 242.961 275.585 241.631 274.465 239.484C274.278 239.204 274.031 238.681 273.725 237.914C273.425 237.141 273.251 236.637 273.205 236.404C273.018 236.637 272.771 236.931 272.465 237.284C272.165 237.631 271.875 237.944 271.595 238.224C268.281 241.584 265.445 243.767 263.085 244.774C260.731 245.774 258.761 245.761 257.175 244.734ZM261.025 238.924C261.351 238.971 261.865 238.797 262.565 238.404C263.265 238.004 264.198 237.337 265.365 236.404C266.951 235.051 268.258 233.931 269.285 233.044C270.311 232.157 271.315 231.014 272.295 229.614L273.835 227.094C273.368 226.021 272.948 225.321 272.575 224.994C272.201 224.667 271.828 224.504 271.455 224.504C270.848 224.504 270.125 224.891 269.285 225.664C268.445 226.431 267.498 227.551 266.445 229.024C265.398 230.491 264.221 232.321 262.915 234.514C262.308 235.541 261.841 236.531 261.515 237.484C261.188 238.444 261.025 238.924 261.025 238.924ZM288.885 246.274C288.371 246.181 287.811 245.867 287.205 245.334C286.598 244.794 286.048 244.184 285.555 243.504C285.068 242.831 284.755 242.261 284.615 241.794C284.615 241.701 284.555 241.584 284.435 241.444C284.321 241.304 284.265 241.234 284.265 241.234C284.078 241.094 283.971 240.477 283.945 239.384C283.925 238.284 283.985 237.057 284.125 235.704C284.265 234.351 284.428 233.277 284.615 232.484C284.848 231.737 285.198 230.724 285.665 229.444C286.131 228.157 286.528 227.001 286.855 225.974L288.745 221.914L285.945 221.144C285.618 221.051 285.348 220.864 285.135 220.584C284.928 220.304 284.825 220.071 284.825 219.884C284.825 219.511 285.035 218.974 285.455 218.274C285.875 217.574 286.178 217.224 286.365 217.224C286.598 217.271 287.028 217.294 287.655 217.294C288.288 217.294 288.908 217.271 289.515 217.224C290.121 217.177 290.495 217.131 290.635 217.084C290.821 216.991 291.008 216.864 291.195 216.704C291.381 216.537 291.521 216.291 291.615 215.964C291.848 215.451 292.058 215.054 292.245 214.774C292.431 214.494 292.688 214.074 293.015 213.514C293.341 212.907 293.608 212.394 293.815 211.974C294.028 211.554 294.368 210.971 294.835 210.224C295.068 209.897 295.325 209.501 295.605 209.034C295.885 208.567 296.235 208.171 296.655 207.844C297.075 207.471 297.761 207.201 298.715 207.034C299.675 206.874 300.505 207.097 301.205 207.704C301.578 208.171 301.788 208.614 301.835 209.034C301.881 209.454 301.695 209.991 301.275 210.644C300.901 211.437 300.468 212.147 299.975 212.774C299.488 213.407 299.035 214.121 298.615 214.914C297.868 215.941 297.728 216.524 298.195 216.664C298.661 216.804 299.968 216.711 302.115 216.384C303.468 216.151 304.448 216.291 305.055 216.804C305.661 217.317 306.011 217.971 306.105 218.764C306.245 219.884 306.128 220.561 305.755 220.794C305.381 221.027 304.308 221.144 302.535 221.144C301.415 221.331 300.458 221.434 299.665 221.454C298.871 221.481 298.288 221.494 297.915 221.494C297.308 221.541 296.911 221.564 296.725 221.564C296.538 221.564 296.258 221.611 295.885 221.704C295.511 221.797 295.241 221.951 295.075 222.164C294.915 222.371 294.741 222.661 294.555 223.034C294.368 223.221 294.088 223.711 293.715 224.504C293.341 225.297 292.875 226.161 292.315 227.094C291.661 229.054 291.111 230.934 290.665 232.734C290.225 234.527 289.841 236.311 289.515 238.084C289.375 238.971 289.408 239.614 289.615 240.014C289.828 240.407 290.425 240.651 291.405 240.744C291.918 240.791 292.665 240.781 293.645 240.714C294.625 240.641 295.441 240.511 296.095 240.324C296.608 240.091 297.145 239.847 297.705 239.594C298.265 239.334 298.778 239.064 299.245 238.784C299.665 238.551 300.085 238.307 300.505 238.054C300.925 237.794 301.135 237.664 301.135 237.664C301.368 237.291 301.705 237.351 302.145 237.844C302.591 238.331 302.908 238.854 303.095 239.414C303.095 239.974 302.978 240.641 302.745 241.414C302.511 242.181 301.648 242.984 300.155 243.824C298.055 245.131 295.955 245.924 293.855 246.204C291.755 246.484 290.098 246.507 288.885 246.274ZM304.845 245.014C304.471 244.641 304.201 244.081 304.035 243.334C303.875 242.587 303.818 241.854 303.865 241.134C303.911 240.407 304.028 239.857 304.215 239.484C304.215 239.111 304.271 238.821 304.385 238.614C304.505 238.401 304.541 238.201 304.495 238.014C304.448 237.827 304.495 237.501 304.635 237.034C304.775 236.567 304.915 236.124 305.055 235.704C305.381 234.957 305.755 233.991 306.175 232.804C306.595 231.611 307.015 230.397 307.435 229.164C307.855 227.924 308.205 226.851 308.485 225.944C308.765 225.031 308.928 224.481 308.975 224.294C308.975 223.734 309.348 223.431 310.095 223.384C310.655 223.197 311.331 223.431 312.125 224.084C312.918 224.737 313.548 225.437 314.015 226.184C314.388 226.557 314.528 227.047 314.435 227.654C314.341 228.261 314.038 229.124 313.525 230.244C313.338 230.617 313.115 231.234 312.855 232.094C312.601 232.961 312.428 233.674 312.335 234.234C312.148 234.607 311.925 235.131 311.665 235.804C311.411 236.484 311.191 237.127 311.005 237.734C310.911 237.967 310.818 238.401 310.725 239.034C310.631 239.661 310.515 240.301 310.375 240.954C310.235 241.607 310.048 242.121 309.815 242.494C309.395 244.407 308.658 245.527 307.605 245.854C306.558 246.181 305.638 245.901 304.845 245.014ZM312.405 216.944C311.891 216.571 311.505 216.117 311.245 215.584C310.991 215.044 310.851 214.564 310.825 214.144C310.805 213.724 310.841 213.467 310.935 213.374C311.401 212.861 311.808 212.184 312.155 211.344C312.508 210.504 312.895 209.734 313.315 209.034C313.408 208.894 313.535 208.697 313.695 208.444C313.861 208.184 314.038 208.031 314.225 207.984C314.785 207.611 315.565 207.634 316.565 208.054C317.571 208.474 318.308 209.057 318.775 209.804C319.195 210.691 319.321 211.601 319.155 212.534C318.995 213.467 318.495 214.447 317.655 215.474C316.955 216.407 316.068 217.001 314.995 217.254C313.921 217.514 313.058 217.411 312.405 216.944ZM321.785 242.494C321.458 242.214 321.025 241.374 320.485 239.974C319.951 238.574 319.438 236.941 318.945 235.074C318.458 233.207 318.075 231.481 317.795 229.894C317.608 228.961 317.408 228.167 317.195 227.514C316.988 226.861 316.815 226.324 316.675 225.904C316.441 225.064 316.521 224.177 316.915 223.244C317.315 222.311 317.795 221.681 318.355 221.354C318.588 221.214 319.018 221.107 319.645 221.034C320.278 220.967 320.688 220.957 320.875 221.004C321.435 221.191 321.948 222.041 322.415 223.554C322.881 225.074 323.301 227.071 323.675 229.544C323.861 230.991 324.011 232.054 324.125 232.734C324.245 233.407 324.305 233.837 324.305 234.024C324.491 234.397 324.618 234.854 324.685 235.394C324.758 235.927 324.981 236.007 325.355 235.634C325.541 235.447 325.831 235.121 326.225 234.654C326.625 234.187 327.105 233.581 327.665 232.834C328.645 231.527 329.425 230.444 330.005 229.584C330.591 228.717 331.258 227.817 332.005 226.884C332.331 226.417 332.775 225.904 333.335 225.344C333.895 224.784 334.455 224.261 335.015 223.774C335.575 223.281 336.041 222.987 336.415 222.894C337.535 222.707 338.221 223.117 338.475 224.124C338.735 225.124 338.398 226.277 337.465 227.584C337.091 228.144 336.798 228.671 336.585 229.164C336.378 229.651 336.181 229.987 335.995 230.174C335.621 230.921 335.038 231.867 334.245 233.014C333.451 234.154 332.681 235.204 331.935 236.164C331.188 237.117 330.675 237.734 330.395 238.014C330.208 238.201 329.798 238.551 329.165 239.064C328.538 239.577 327.945 240.231 327.385 241.024C326.265 242.097 325.191 242.751 324.165 242.984C323.138 243.217 322.345 243.054 321.785 242.494ZM350.135 244.804C348.735 245.597 347.251 246.054 345.685 246.174C344.125 246.287 342.668 246.074 341.315 245.534C339.961 245.001 338.865 244.197 338.025 243.124C337.558 242.517 337.115 241.551 336.695 240.224C336.275 238.891 336.205 237.081 336.485 234.794C336.765 232.647 337.428 230.477 338.475 228.284C339.528 226.091 340.825 224.154 342.365 222.474C343.905 220.794 345.585 219.651 347.405 219.044C348.058 218.811 348.721 218.637 349.395 218.524C350.075 218.404 350.975 218.391 352.095 218.484C353.168 218.624 354.125 218.891 354.965 219.284C355.805 219.684 356.411 220.117 356.785 220.584C357.531 221.331 358.021 222.054 358.255 222.754C358.488 223.454 358.581 224.131 358.535 224.784C358.301 226.277 357.635 227.887 356.535 229.614C355.441 231.341 353.915 232.624 351.955 233.464C351.161 233.791 350.228 234.001 349.155 234.094C348.081 234.187 346.611 234.047 344.745 233.674C343.625 233.441 342.888 233.557 342.535 234.024C342.188 234.491 342.038 235.401 342.085 236.754C342.178 237.594 342.375 238.327 342.675 238.954C342.981 239.587 343.555 240.021 344.395 240.254C345.468 240.441 346.238 240.454 346.705 240.294C347.171 240.127 347.755 239.881 348.455 239.554C348.828 239.321 349.188 239.064 349.535 238.784C349.888 238.504 350.238 238.224 350.585 237.944C350.938 237.664 351.231 237.454 351.465 237.314C351.698 237.127 351.931 237.011 352.165 236.964C352.398 236.917 352.631 236.894 352.865 236.894C353.378 236.941 353.868 237.221 354.335 237.734C354.801 238.247 355.105 238.737 355.245 239.204C355.245 239.577 355.011 240.104 354.545 240.784C354.078 241.457 353.458 242.157 352.685 242.884C351.918 243.604 351.068 244.244 350.135 244.804ZM349.225 229.194C349.551 229.054 350.028 228.727 350.655 228.214C351.288 227.701 351.861 227.151 352.375 226.564C352.888 225.984 353.145 225.531 353.145 225.204C353.145 224.691 352.805 224.247 352.125 223.874C351.451 223.501 350.578 223.431 349.505 223.664C349.131 223.757 348.688 224.014 348.175 224.434C347.661 224.854 347.148 225.334 346.635 225.874C346.121 226.407 345.678 226.921 345.305 227.414C344.931 227.901 344.675 228.284 344.535 228.564C344.721 228.797 345.095 228.984 345.655 229.124C346.215 229.264 346.831 229.334 347.505 229.334C348.185 229.334 348.758 229.287 349.225 229.194Z" fill="black"/>
</g>
<defs>
<clipPath id="clip0_183_307">
<rect width="148.996" height="117.245" fill="white" transform="translate(154.775 70)"/>
</clipPath>
<clipPath id="clip1_183_307">
<rect width="288.546" height="40.2427" fill="white" transform="translate(70 206.984)"/>
</clipPath>
</defs>
</svg>
