<svg xmlns="http://www.w3.org/2000/svg" viewBox="73.22686767578125 133.20799255371094 428.5462646484375 317.22673681640623"> <svg xmlns="http://www.w3.org/2000/svg" xmlns:xlink="http://www.w3.org/1999/xlink" version="1.1" id="Ebene_1" x="228.00180053710938" y="203.20799255371094" viewBox="94.51958465576172 95.15995025634766 138.34194946289062 108.86139678955078" xml:space="preserve" height="117.24541804077785" width="148.99639892578125" preserveAspectRatio="xMinYMin" enable-background="new 0 0 300 300" style="overflow: visible;"><path d="M224.06,164.89c-3.74-0.01-6.91,2.53-7.95,6.12c-1.03,3.55-2.96,6.8-5.65,9.47c-4.19,4.16-9.76,6.36-15.65,6.42l0,0.11  c-4.71-0.01-9.26-0.69-13.6-1.86c13.75-12.87,22.36-31.17,22.18-51.49c-0.19-21.53-17.69-38.53-39.23-38.5  c-38.29,0.06-69.45,31.14-69.64,69.4c-0.1,21.68,17.03,39.33,38.71,39.46c11.15,0.07,21.66-2.57,31.03-7.18  c9.26,4.55,19.63,7.18,30.62,7.18v-0.11c0,0,0.01,0,0.01,0c10.39,0,20.17-4.03,27.55-11.36c4.88-4.84,8.33-10.75,10.12-17.2  c1.46-5.25-2.57-10.44-8.03-10.46L224.06,164.89z M186.37,134.27c0,17.66-8.75,33.27-22.11,42.85  c-13.36-9.58-22.11-25.19-22.11-42.85c0-11.43,8.72-20.86,19.86-22c0.75-0.03,1.5-0.11,2.26-0.11  C176.45,112.16,186.37,122.08,186.37,134.27z M133.64,187.01c-12.19,0-22.11-9.92-22.11-22.11c0-13.74,5.33-26.23,13.97-35.62  c-0.21,1.64-0.36,3.3-0.36,5c0,20.07,8.57,38.13,22.18,50.87C142.95,186.32,138.38,187.01,133.64,187.01z" style="fill: #ffffff;"></path></svg> <svg xmlns="http://www.w3.org/2000/svg" y="340.1919925537109" viewBox="5.465384483337402 27.97991371154785 288.5462646484375 40.24273681640625" x="143.22686767578125" height="40.24273681640625" width="288.5462646484375" style="overflow: visible;"><g fill="#ffffff" style=""><path d="M8.68 65.73L8.68 65.73Q8.40 65.17 7.46 64.61Q6.51 64.05 6.51 63.77L6.51 63.77Q6.51 63.49 6.20 62.90Q5.88 62.30 5.60 62.02L5.60 62.02Q5.25 61.60 5.81 59.95Q6.37 58.31 7.49 55.93Q8.61 53.55 9.94 51.10L9.94 51.10Q10.50 50.54 11.06 49.63Q11.62 48.72 11.90 48.44L11.90 48.44Q11.90 48.16 12.11 47.92Q12.32 47.67 12.60 47.67L12.60 47.67L13.16 46.55Q13.30 46.27 14.04 45.43Q14.77 44.59 15.82 43.58Q16.87 42.56 17.96 41.65Q19.04 40.74 19.74 40.32L19.74 40.32Q21.21 39.34 22.79 39.41Q24.36 39.48 25.48 40.39L25.48 40.39Q25.69 40.60 26.43 41.23Q27.16 41.86 28.11 42.63Q29.05 43.40 29.75 44.03L29.75 44.03L32.34 46.34L31.15 49.84Q30.24 52.64 30.70 54.74Q31.15 56.84 31.99 58.38L31.99 58.38Q32.34 59.15 32.94 59.57Q33.53 59.99 34.51 60.13L34.51 60.13Q35.07 60.20 35.56 60.55Q36.05 60.90 36.05 61.67L36.05 61.67Q36.05 63.35 35.46 64.09Q34.86 64.82 34.16 64.96L34.16 64.96Q31.85 65.24 29.75 64.47Q27.65 63.70 25.97 60.48L25.97 60.48Q25.69 60.06 25.24 58.91Q24.78 57.75 24.71 57.40L24.71 57.40Q24.43 57.75 23.98 58.28Q23.52 58.80 23.10 59.22L23.10 59.22Q18.13 64.26 14.60 65.77Q11.06 67.27 8.68 65.73ZM12.53 59.92L12.53 59.92Q13.02 59.99 14.07 59.40Q15.12 58.80 16.87 57.40L16.87 57.40Q19.25 55.37 20.79 54.04Q22.33 52.71 23.80 50.61L23.80 50.61L25.34 48.09Q24.64 46.48 24.08 45.99Q23.52 45.50 22.96 45.50L22.96 45.50Q22.05 45.50 20.79 46.66Q19.53 47.81 17.96 50.02Q16.38 52.22 14.42 55.51L14.42 55.51Q13.51 57.05 13.02 58.48Q12.53 59.92 12.53 59.92ZM36.75 65.31L36.75 65.31Q36.12 64.82 35.39 64.05Q34.65 63.28 34.86 61.88L34.86 61.88Q35.07 59.92 35.42 58.42Q35.77 56.91 36.26 54.95L36.26 54.95Q36.40 54.11 37.00 52.08Q37.59 50.05 38.43 47.67Q39.27 45.29 40.18 43.16Q41.09 41.02 41.79 39.97L41.79 39.97Q42.56 39.27 44.07 39.27Q45.57 39.27 46.13 39.83L46.13 39.83Q46.90 40.46 46.62 42.03Q46.34 43.61 44.66 46.90L44.66 46.90Q44.31 47.74 43.79 48.69Q43.26 49.63 43.05 50.23Q42.84 50.82 43.19 50.75L43.19 50.75Q43.61 49.98 44.73 48.97Q45.85 47.95 47.11 46.97Q48.37 45.99 49.49 45.22Q50.61 44.45 51.03 44.24L51.03 44.24Q51.59 43.89 52.33 43.64Q53.06 43.40 53.34 43.26L53.34 43.26Q54.95 42.49 56.88 42.66Q58.80 42.84 59.22 43.89L59.22 43.89Q59.29 44.45 59.68 44.73Q60.06 45.01 60.06 45.01L60.06 45.01Q60.34 45.01 60.38 45.22Q60.41 45.43 60.41 45.43L60.41 45.43Q60.41 45.92 59.47 46.83Q58.52 47.74 57.40 47.81L57.40 47.81Q56.49 47.88 55.79 48.16Q55.09 48.44 54.11 48.86L54.11 48.86Q51.45 50.40 49.32 51.59Q47.18 52.78 44.94 55.23L44.94 55.23Q44.45 55.79 43.89 56.28Q43.33 56.77 42.77 57.68L42.77 57.68Q42.42 58.03 42.07 59.22Q41.72 60.41 41.48 61.50Q41.23 62.58 41.23 62.79L41.23 62.79Q41.23 62.79 41.02 63.46Q40.81 64.12 40.32 64.75L40.32 64.75Q39.48 65.87 38.68 66.15Q37.87 66.43 36.75 65.31ZM62.79 67.27L62.79 67.27Q62.02 67.13 61.11 66.33Q60.20 65.52 59.47 64.50Q58.73 63.49 58.52 62.79L58.52 62.79Q58.52 62.65 58.35 62.44Q58.17 62.23 58.17 62.23L58.17 62.23Q57.89 62.02 57.86 60.38Q57.82 58.73 58.03 56.70Q58.24 54.67 58.52 53.48L58.52 53.48Q58.87 52.36 59.57 50.44Q60.27 48.51 60.76 46.97L60.76 46.97L62.65 42.91L59.85 42.14Q59.36 42 59.05 41.58Q58.73 41.16 58.73 40.88L58.73 40.88Q58.73 40.32 59.36 39.27Q59.99 38.22 60.27 38.22L60.27 38.22Q60.62 38.29 61.57 38.29Q62.51 38.29 63.42 38.22Q64.33 38.15 64.54 38.08L64.54 38.08Q64.82 37.94 65.10 37.70Q65.38 37.45 65.52 36.96L65.52 36.96Q65.87 36.19 66.15 35.77Q66.43 35.35 66.92 34.51L66.92 34.51Q67.41 33.60 67.73 32.97Q68.04 32.34 68.74 31.22L68.74 31.22Q69.09 30.73 69.51 30.03Q69.93 29.33 70.56 28.84L70.56 28.84Q71.19 28.28 72.63 28.03Q74.06 27.79 75.11 28.70L75.11 28.70Q75.67 29.40 75.74 30.03Q75.81 30.66 75.18 31.64L75.18 31.64Q74.62 32.83 73.89 33.77Q73.15 34.72 72.52 35.91L72.52 35.91Q71.40 37.45 72.10 37.66Q72.80 37.87 76.02 37.38L76.02 37.38Q78.05 37.03 78.96 37.80Q79.87 38.57 80.01 39.76L80.01 39.76Q80.22 41.44 79.66 41.79Q79.10 42.14 76.44 42.14L76.44 42.14Q74.76 42.42 73.57 42.45Q72.38 42.49 71.82 42.49L71.82 42.49Q70.91 42.56 70.63 42.56Q70.35 42.56 69.79 42.70L69.79 42.70Q69.23 42.84 68.99 43.16Q68.74 43.47 68.46 44.03L68.46 44.03Q68.18 44.31 67.62 45.50Q67.06 46.69 66.22 48.09L66.22 48.09Q65.24 51.03 64.58 53.73Q63.91 56.42 63.42 59.08L63.42 59.08Q63.21 60.41 63.53 61.01Q63.84 61.60 65.31 61.74L65.31 61.74Q66.08 61.81 67.55 61.71Q69.02 61.60 70.00 61.32L70.00 61.32Q70.77 60.97 71.61 60.59Q72.45 60.20 73.15 59.78L73.15 59.78Q73.78 59.43 74.41 59.05Q75.04 58.66 75.04 58.66L75.04 58.66Q75.39 58.10 76.06 58.84Q76.72 59.57 77.00 60.41L77.00 60.41Q77.00 61.25 76.65 62.41Q76.30 63.56 74.06 64.82L74.06 64.82Q70.91 66.78 67.76 67.20Q64.61 67.62 62.79 67.27ZM78.75 66.01L78.75 66.01Q78.19 65.45 77.95 64.33Q77.70 63.21 77.77 62.13Q77.84 61.04 78.12 60.48L78.12 60.48Q78.12 59.92 78.30 59.61Q78.47 59.29 78.40 59.01L78.40 59.01Q78.33 58.73 78.54 58.03Q78.75 57.33 78.96 56.70L78.96 56.70Q79.45 55.58 80.08 53.80Q80.71 52.01 81.34 50.16Q81.97 48.30 82.39 46.94Q82.81 45.57 82.88 45.29L82.88 45.29Q82.88 44.45 84 44.38L84 44.38Q84.84 44.10 86.03 45.08Q87.22 46.06 87.92 47.18L87.92 47.18Q88.48 47.74 88.34 48.65Q88.20 49.56 87.43 51.24L87.43 51.24Q87.15 51.80 86.77 53.09Q86.38 54.39 86.24 55.23L86.24 55.23Q85.96 55.79 85.58 56.80Q85.19 57.82 84.91 58.73L84.91 58.73Q84.77 59.08 84.63 60.03Q84.49 60.97 84.28 61.95Q84.07 62.93 83.72 63.49L83.72 63.49Q83.09 66.36 81.52 66.85Q79.94 67.34 78.75 66.01ZM86.31 37.94L86.31 37.94Q85.54 37.38 85.16 36.58Q84.77 35.77 84.74 35.14Q84.70 34.51 84.84 34.37L84.84 34.37Q85.54 33.60 86.07 32.34Q86.59 31.08 87.22 30.03L87.22 30.03Q87.36 29.82 87.61 29.44Q87.85 29.05 88.13 28.98L88.13 28.98Q88.97 28.42 90.48 29.05Q91.98 29.68 92.68 30.80L92.68 30.80Q93.31 32.13 93.07 33.53Q92.82 34.93 91.56 36.47L91.56 36.47Q90.51 37.87 88.90 38.25Q87.29 38.64 86.31 37.94ZM93.17 67.62L93.17 67.62Q90.79 66.64 89.71 65.56Q88.62 64.47 88.83 63.63L88.83 63.63Q88.97 63.21 89.32 62.86Q89.67 62.51 90.90 62.55Q92.12 62.58 94.71 63.21L94.71 63.21Q95.48 63.21 96.25 63.14Q97.02 63.07 97.69 62.93Q98.35 62.79 98.77 62.58L98.77 62.58Q99.12 62.44 98.98 62.20Q98.84 61.95 98.49 61.67L98.49 61.67Q98.21 61.32 97.86 61.22Q97.51 61.11 97.23 61.11L97.23 61.11Q97.09 60.76 96.64 60.41Q96.18 60.06 95.55 59.64L95.55 59.64Q94.01 58.38 92.75 57.40Q91.49 56.42 91.77 55.93L91.77 55.93Q91.77 55.65 91.77 55.62Q91.77 55.58 91.77 55.58L91.77 55.58Q91.28 55.58 90.86 54.22Q90.44 52.85 90.44 51.73L90.44 51.73Q90.44 50.33 91.04 48.93Q91.63 47.53 92.58 46.27Q93.52 45.01 94.50 44.03L94.50 44.03Q95.83 42.77 97.34 41.55Q98.84 40.32 100.63 39.34Q102.41 38.36 104.58 37.80L104.58 37.80Q105.56 37.59 106.82 37.59Q108.08 37.59 108.64 37.94L108.64 37.94Q109.20 37.59 110.04 38.11Q110.88 38.64 111.72 39.55Q112.56 40.46 112.98 41.37L112.98 41.37Q112.98 42.21 112.95 43.44Q112.91 44.66 112.77 45.57Q112.63 46.48 112.14 46.48L112.14 46.48Q112.14 46.48 111.97 46.52Q111.79 46.55 111.79 46.90L111.79 46.90Q111.79 47.60 110.74 48.51L110.74 48.51Q109.41 49.42 108.22 49.98Q107.03 50.54 106.40 50.05L106.40 50.05Q105.98 49.77 105.63 49.49Q105.28 49.21 105.00 48.79L105.00 48.79Q105.00 48.79 104.83 48.48Q104.65 48.16 104.65 47.88L104.65 47.88Q104.65 47.60 104.86 47.36Q105.07 47.11 105.07 47.11L105.07 47.11Q106.05 46.20 106.58 45.43Q107.10 44.66 107.31 44.06Q107.52 43.47 107.52 43.12L107.52 43.12Q107.52 42.70 107.35 42.59Q107.17 42.49 106.61 42.49L106.61 42.49Q106.26 42.49 105.11 43.05Q103.95 43.61 102.69 44.41Q101.43 45.22 100.73 45.85L100.73 45.85Q100.45 46.34 100.35 46.48Q100.24 46.62 99.96 46.62L99.96 46.62Q99.96 46.34 99.61 46.69Q99.26 47.04 98.77 47.67Q98.28 48.30 97.79 49Q97.30 49.70 97.02 50.12L97.02 50.12Q96.95 50.75 96.71 51.28Q96.46 51.80 96.53 52.36L96.53 52.36Q96.60 53.06 97.23 53.69Q97.86 54.32 99.05 55.30L99.05 55.30Q101.50 57.12 102.73 58.17Q103.95 59.22 104.44 59.85Q104.93 60.48 105.07 61.11L105.07 61.11Q106.26 63.28 105.35 64.86Q104.44 66.43 102.55 67.27L102.55 67.27Q101.85 67.62 100.10 67.94Q98.35 68.25 96.43 68.22Q94.50 68.18 93.17 67.62ZM133.77 67.48L133.77 67.48Q131.74 67.83 129.75 67.13Q127.75 66.43 126.46 64.86Q125.16 63.28 125.16 61.04L125.16 61.04Q124.95 58.94 125.55 56.04Q126.14 53.13 127.37 50.19Q128.59 47.25 130.20 45.22L130.20 45.22Q131.60 43.54 133 42.14Q134.40 40.74 135.52 40.25L135.52 40.25Q136.50 39.83 137.94 39.59Q139.37 39.34 139.93 39.34L139.93 39.34Q141.05 39.62 142.42 40.25Q143.78 40.88 143.78 41.72L143.78 41.72Q143.78 41.72 143.96 41.89Q144.13 42.07 144.13 42.07L144.13 42.07Q144.55 42.07 145.08 43.09Q145.60 44.10 145.88 45.39Q146.16 46.69 145.74 47.46L145.74 47.46Q145.46 48.79 144.66 50.05Q143.85 51.31 143.29 51.31L143.29 51.31Q143.01 51.31 142.77 51.34Q142.52 51.38 142.52 51.73L142.52 51.73Q142.52 52.08 141.79 52.08Q141.05 52.08 140.28 51.80Q139.51 51.52 139.30 50.96L139.30 50.96Q139.30 50.61 139.44 50.05Q139.58 49.49 139.86 48.16L139.86 48.16Q140.28 46.20 139.93 45.53Q139.58 44.87 138.18 45.43L138.18 45.43Q136.43 46.41 135.31 47.70Q134.19 49 133.31 51.31Q132.44 53.62 131.39 57.75L131.39 57.75Q130.97 59.36 131.29 60.27Q131.60 61.18 131.81 61.25L131.81 61.25Q132.79 61.53 133.95 61.36Q135.10 61.18 135.87 60.76L135.87 60.76Q136.99 60.20 137.87 59.54Q138.74 58.87 139.79 58.10L139.79 58.10Q140.14 57.89 140.42 57.30Q140.70 56.70 141.26 56.42L141.26 56.42Q141.82 55.58 142.70 55.55Q143.57 55.51 144.41 55.51L144.41 55.51Q144.97 55.65 145.60 56.21Q146.23 56.77 146.55 57.30Q146.86 57.82 146.44 58.03L146.44 58.03Q146.16 58.03 146.13 58.20Q146.09 58.38 146.09 58.38L146.09 58.38Q146.23 58.66 145.50 59.64Q144.76 60.62 143.64 61.74Q142.52 62.86 141.51 63.67Q140.49 64.47 140.07 64.47L140.07 64.47Q139.37 64.47 139.37 64.89L139.37 64.89Q139.37 65.03 138.36 65.59Q137.34 66.15 136.05 66.71Q134.75 67.27 133.77 67.48ZM149.31 65.31L149.31 65.31Q148.68 64.82 147.95 64.05Q147.21 63.28 147.42 61.88L147.42 61.88Q147.63 59.92 147.98 58.42Q148.33 56.91 148.82 54.95L148.82 54.95Q148.96 54.11 149.56 52.08Q150.15 50.05 150.99 47.67Q151.83 45.29 152.74 43.16Q153.65 41.02 154.35 39.97L154.35 39.97Q155.12 39.27 156.63 39.27Q158.13 39.27 158.69 39.83L158.69 39.83Q159.46 40.46 159.18 42.03Q158.90 43.61 157.22 46.90L157.22 46.90Q156.87 47.74 156.35 48.69Q155.82 49.63 155.61 50.23Q155.40 50.82 155.75 50.75L155.75 50.75Q156.17 49.98 157.29 48.97Q158.41 47.95 159.67 46.97Q160.93 45.99 162.05 45.22Q163.17 44.45 163.59 44.24L163.59 44.24Q164.15 43.89 164.89 43.64Q165.62 43.40 165.90 43.26L165.90 43.26Q167.51 42.49 169.44 42.66Q171.36 42.84 171.78 43.89L171.78 43.89Q171.85 44.45 172.24 44.73Q172.62 45.01 172.62 45.01L172.62 45.01Q172.90 45.01 172.94 45.22Q172.97 45.43 172.97 45.43L172.97 45.43Q172.97 45.92 172.03 46.83Q171.08 47.74 169.96 47.81L169.96 47.81Q169.05 47.88 168.35 48.16Q167.65 48.44 166.67 48.86L166.67 48.86Q164.01 50.40 161.88 51.59Q159.74 52.78 157.50 55.23L157.50 55.23Q157.01 55.79 156.45 56.28Q155.89 56.77 155.33 57.68L155.33 57.68Q154.98 58.03 154.63 59.22Q154.28 60.41 154.04 61.50Q153.79 62.58 153.79 62.79L153.79 62.79Q153.79 62.79 153.58 63.46Q153.37 64.12 152.88 64.75L152.88 64.75Q152.04 65.87 151.24 66.15Q150.43 66.43 149.31 65.31ZM183.89 65.80L183.89 65.80Q181.79 66.99 179.44 67.17Q177.10 67.34 175.07 66.53Q173.04 65.73 171.78 64.12L171.78 64.12Q171.08 63.21 170.45 61.22Q169.82 59.22 170.24 55.79L170.24 55.79Q170.66 52.57 172.23 49.28Q173.81 45.99 176.12 43.47Q178.43 40.95 181.16 40.04L181.16 40.04Q182.14 39.69 183.16 39.52Q184.17 39.34 185.85 39.48L185.85 39.48Q187.46 39.69 188.72 40.28Q189.98 40.88 190.54 41.58L190.54 41.58Q191.66 42.70 192.01 43.75Q192.36 44.80 192.29 45.78L192.29 45.78Q191.94 48.02 190.29 50.61Q188.65 53.20 185.71 54.46L185.71 54.46Q184.52 54.95 182.91 55.09Q181.30 55.23 178.50 54.67L178.50 54.67Q176.82 54.32 176.29 55.02Q175.77 55.72 175.84 57.75L175.84 57.75Q175.98 59.01 176.44 59.95Q176.89 60.90 178.15 61.25L178.15 61.25Q179.76 61.53 180.46 61.29Q181.16 61.04 182.21 60.55L182.21 60.55Q182.77 60.20 183.29 59.78Q183.82 59.36 184.34 58.94Q184.87 58.52 185.22 58.31L185.22 58.31Q185.57 58.03 185.92 57.96Q186.27 57.89 186.62 57.89L186.62 57.89Q187.39 57.96 188.09 58.73Q188.79 59.50 189 60.20L189 60.20Q189 60.76 188.30 61.78Q187.60 62.79 186.44 63.88Q185.29 64.96 183.89 65.80ZM182.98 50.19L182.98 50.19Q183.47 49.98 184.41 49.21Q185.36 48.44 186.13 47.56Q186.90 46.69 186.90 46.20L186.90 46.20Q186.90 45.43 185.88 44.87Q184.87 44.31 183.26 44.66L183.26 44.66Q182.70 44.80 181.93 45.43Q181.16 46.06 180.39 46.87Q179.62 47.67 179.06 48.41Q178.50 49.14 178.29 49.56L178.29 49.56Q178.57 49.91 179.41 50.12Q180.25 50.33 181.26 50.33Q182.28 50.33 182.98 50.19ZM192.64 65.73L192.64 65.73Q192.36 65.17 191.41 64.61Q190.47 64.05 190.47 63.77L190.47 63.77Q190.47 63.49 190.15 62.90Q189.84 62.30 189.56 62.02L189.56 62.02Q189.21 61.60 189.77 59.95Q190.33 58.31 191.45 55.93Q192.57 53.55 193.90 51.10L193.90 51.10Q194.46 50.54 195.02 49.63Q195.58 48.72 195.86 48.44L195.86 48.44Q195.86 48.16 196.07 47.92Q196.28 47.67 196.56 47.67L196.56 47.67L197.12 46.55Q197.26 46.27 197.99 45.43Q198.73 44.59 199.78 43.58Q200.83 42.56 201.91 41.65Q203.00 40.74 203.70 40.32L203.70 40.32Q205.17 39.34 206.74 39.41Q208.32 39.48 209.44 40.39L209.44 40.39Q209.65 40.60 210.38 41.23Q211.12 41.86 212.06 42.63Q213.01 43.40 213.71 44.03L213.71 44.03L216.30 46.34L215.11 49.84Q214.20 52.64 214.65 54.74Q215.11 56.84 215.95 58.38L215.95 58.38Q216.30 59.15 216.89 59.57Q217.49 59.99 218.47 60.13L218.47 60.13Q219.03 60.20 219.52 60.55Q220.01 60.90 220.01 61.67L220.01 61.67Q220.01 63.35 219.41 64.09Q218.82 64.82 218.12 64.96L218.12 64.96Q215.81 65.24 213.71 64.47Q211.61 63.70 209.93 60.48L209.93 60.48Q209.65 60.06 209.19 58.91Q208.74 57.75 208.67 57.40L208.67 57.40Q208.39 57.75 207.93 58.28Q207.48 58.80 207.06 59.22L207.06 59.22Q202.09 64.26 198.55 65.77Q195.02 67.27 192.64 65.73ZM196.49 59.92L196.49 59.92Q196.98 59.99 198.03 59.40Q199.08 58.80 200.83 57.40L200.83 57.40Q203.21 55.37 204.75 54.04Q206.29 52.71 207.76 50.61L207.76 50.61L209.30 48.09Q208.60 46.48 208.04 45.99Q207.48 45.50 206.92 45.50L206.92 45.50Q206.01 45.50 204.75 46.66Q203.49 47.81 201.91 50.02Q200.34 52.22 198.38 55.51L198.38 55.51Q197.47 57.05 196.98 58.48Q196.49 59.92 196.49 59.92ZM224.35 67.27L224.35 67.27Q223.58 67.13 222.67 66.33Q221.76 65.52 221.02 64.50Q220.29 63.49 220.08 62.79L220.08 62.79Q220.08 62.65 219.90 62.44Q219.73 62.23 219.73 62.23L219.73 62.23Q219.45 62.02 219.41 60.38Q219.38 58.73 219.59 56.70Q219.80 54.67 220.08 53.48L220.08 53.48Q220.43 52.36 221.13 50.44Q221.83 48.51 222.32 46.97L222.32 46.97L224.21 42.91L221.41 42.14Q220.92 42 220.60 41.58Q220.29 41.16 220.29 40.88L220.29 40.88Q220.29 40.32 220.92 39.27Q221.55 38.22 221.83 38.22L221.83 38.22Q222.18 38.29 223.12 38.29Q224.07 38.29 224.98 38.22Q225.89 38.15 226.10 38.08L226.10 38.08Q226.38 37.94 226.66 37.70Q226.94 37.45 227.08 36.96L227.08 36.96Q227.43 36.19 227.71 35.77Q227.99 35.35 228.48 34.51L228.48 34.51Q228.97 33.60 229.28 32.97Q229.60 32.34 230.30 31.22L230.30 31.22Q230.65 30.73 231.07 30.03Q231.49 29.33 232.12 28.84L232.12 28.84Q232.75 28.28 234.18 28.03Q235.62 27.79 236.67 28.70L236.67 28.70Q237.23 29.40 237.30 30.03Q237.37 30.66 236.74 31.64L236.74 31.64Q236.18 32.83 235.44 33.77Q234.71 34.72 234.08 35.91L234.08 35.91Q232.96 37.45 233.66 37.66Q234.36 37.87 237.58 37.38L237.58 37.38Q239.61 37.03 240.52 37.80Q241.43 38.57 241.57 39.76L241.57 39.76Q241.78 41.44 241.22 41.79Q240.66 42.14 238.00 42.14L238.00 42.14Q236.32 42.42 235.13 42.45Q233.94 42.49 233.38 42.49L233.38 42.49Q232.47 42.56 232.19 42.56Q231.91 42.56 231.35 42.70L231.35 42.70Q230.79 42.84 230.54 43.16Q230.30 43.47 230.02 44.03L230.02 44.03Q229.74 44.31 229.18 45.50Q228.62 46.69 227.78 48.09L227.78 48.09Q226.80 51.03 226.13 53.73Q225.47 56.42 224.98 59.08L224.98 59.08Q224.77 60.41 225.08 61.01Q225.40 61.60 226.87 61.74L226.87 61.74Q227.64 61.81 229.11 61.71Q230.58 61.60 231.56 61.32L231.56 61.32Q232.33 60.97 233.17 60.59Q234.01 60.20 234.71 59.78L234.71 59.78Q235.34 59.43 235.97 59.05Q236.60 58.66 236.60 58.66L236.60 58.66Q236.95 58.10 237.61 58.84Q238.28 59.57 238.56 60.41L238.56 60.41Q238.56 61.25 238.21 62.41Q237.86 63.56 235.62 64.82L235.62 64.82Q232.47 66.78 229.32 67.20Q226.17 67.62 224.35 67.27ZM240.31 66.01L240.31 66.01Q239.75 65.45 239.50 64.33Q239.26 63.21 239.33 62.13Q239.40 61.04 239.68 60.48L239.68 60.48Q239.68 59.92 239.85 59.61Q240.03 59.29 239.96 59.01L239.96 59.01Q239.89 58.73 240.10 58.03Q240.31 57.33 240.52 56.70L240.52 56.70Q241.01 55.58 241.64 53.80Q242.27 52.01 242.90 50.16Q243.53 48.30 243.95 46.94Q244.37 45.57 244.44 45.29L244.44 45.29Q244.44 44.45 245.56 44.38L245.56 44.38Q246.40 44.10 247.59 45.08Q248.78 46.06 249.48 47.18L249.48 47.18Q250.04 47.74 249.90 48.65Q249.76 49.56 248.99 51.24L248.99 51.24Q248.71 51.80 248.32 53.09Q247.94 54.39 247.80 55.23L247.80 55.23Q247.52 55.79 247.13 56.80Q246.75 57.82 246.47 58.73L246.47 58.73Q246.33 59.08 246.19 60.03Q246.05 60.97 245.84 61.95Q245.63 62.93 245.28 63.49L245.28 63.49Q244.65 66.36 243.07 66.85Q241.50 67.34 240.31 66.01ZM247.87 37.94L247.87 37.94Q247.10 37.38 246.71 36.58Q246.33 35.77 246.29 35.14Q246.26 34.51 246.40 34.37L246.40 34.37Q247.10 33.60 247.62 32.34Q248.15 31.08 248.78 30.03L248.78 30.03Q248.92 29.82 249.16 29.44Q249.41 29.05 249.69 28.98L249.69 28.98Q250.53 28.42 252.03 29.05Q253.54 29.68 254.24 30.80L254.24 30.80Q254.87 32.13 254.62 33.53Q254.38 34.93 253.12 36.47L253.12 36.47Q252.07 37.87 250.46 38.25Q248.85 38.64 247.87 37.94ZM257.25 63.49L257.25 63.49Q256.76 63.07 255.95 60.97Q255.15 58.87 254.41 56.07Q253.68 53.27 253.26 50.89L253.26 50.89Q252.98 49.49 252.66 48.51Q252.35 47.53 252.14 46.90L252.14 46.90Q251.79 45.64 252.38 44.24Q252.98 42.84 253.82 42.35L253.82 42.35Q254.17 42.14 255.11 42.03Q256.06 41.93 256.34 42L256.34 42Q257.18 42.28 257.88 44.55Q258.58 46.83 259.14 50.54L259.14 50.54Q259.42 52.71 259.59 53.73Q259.77 54.74 259.77 55.02L259.77 55.02Q260.05 55.58 260.15 56.39Q260.26 57.19 260.82 56.63L260.82 56.63Q261.10 56.35 261.69 55.65Q262.29 54.95 263.13 53.83L263.13 53.83Q264.60 51.87 265.47 50.58Q266.35 49.28 267.47 47.88L267.47 47.88Q267.96 47.18 268.80 46.34Q269.64 45.50 270.48 44.77Q271.32 44.03 271.88 43.89L271.88 43.89Q273.56 43.61 273.94 45.12Q274.33 46.62 272.93 48.58L272.93 48.58Q272.37 49.42 272.05 50.16Q271.74 50.89 271.46 51.17L271.46 51.17Q270.90 52.29 269.71 54.01Q268.52 55.72 267.40 57.16Q266.28 58.59 265.86 59.01L265.86 59.01Q265.58 59.29 264.63 60.06Q263.69 60.83 262.85 62.02L262.85 62.02Q261.17 63.63 259.63 63.98Q258.09 64.33 257.25 63.49ZM285.60 65.80L285.60 65.80Q283.50 66.99 281.15 67.17Q278.81 67.34 276.78 66.53Q274.75 65.73 273.49 64.12L273.49 64.12Q272.79 63.21 272.16 61.22Q271.53 59.22 271.95 55.79L271.95 55.79Q272.37 52.57 273.94 49.28Q275.52 45.99 277.83 43.47Q280.14 40.95 282.87 40.04L282.87 40.04Q283.85 39.69 284.86 39.52Q285.88 39.34 287.56 39.48L287.56 39.48Q289.17 39.69 290.43 40.28Q291.69 40.88 292.25 41.58L292.25 41.58Q293.37 42.70 293.72 43.75Q294.07 44.80 294.00 45.78L294.00 45.78Q293.65 48.02 292.00 50.61Q290.36 53.20 287.42 54.46L287.42 54.46Q286.23 54.95 284.62 55.09Q283.01 55.23 280.21 54.67L280.21 54.67Q278.53 54.32 278.00 55.02Q277.48 55.72 277.55 57.75L277.55 57.75Q277.69 59.01 278.14 59.95Q278.60 60.90 279.86 61.25L279.86 61.25Q281.47 61.53 282.17 61.29Q282.87 61.04 283.92 60.55L283.92 60.55Q284.48 60.20 285.00 59.78Q285.53 59.36 286.05 58.94Q286.58 58.52 286.93 58.31L286.93 58.31Q287.28 58.03 287.63 57.96Q287.98 57.89 288.33 57.89L288.33 57.89Q289.10 57.96 289.80 58.73Q290.50 59.50 290.71 60.20L290.71 60.20Q290.71 60.76 290.01 61.78Q289.31 62.79 288.15 63.88Q287.00 64.96 285.60 65.80ZM284.69 50.19L284.69 50.19Q285.18 49.98 286.12 49.21Q287.07 48.44 287.84 47.56Q288.61 46.69 288.61 46.20L288.61 46.20Q288.61 45.43 287.59 44.87Q286.58 44.31 284.97 44.66L284.97 44.66Q284.41 44.80 283.64 45.43Q282.87 46.06 282.10 46.87Q281.33 47.67 280.77 48.41Q280.21 49.14 280.00 49.56L280.00 49.56Q280.28 49.91 281.12 50.12Q281.96 50.33 282.97 50.33Q283.99 50.33 284.69 50.19Z" transform="translate(0, 0)"></path></g></svg></svg>